<svg width="100" height="100" viewBox="0 0 100 100" fill="none" xmlns="http://www.w3.org/2000/svg">
<g clip-path="url(#clip0_8_706)">
<path d="M58.4283 53.1619C58.2013 52.9867 57.9743 52.8115 57.7042 52.5239C57.5179 52.34 57.3749 52.2686 57.2318 52.1971C57.1393 52.1426 57.0469 52.088 56.9103 51.9291C56.7189 51.7589 56.5716 51.6931 56.4243 51.6274C56.4243 51.6274 56.3487 51.6036 56.3152 51.5111C56.138 51.3534 55.9943 51.2881 55.8506 51.2228C55.4415 50.9664 55.0324 50.71 54.5634 50.3469C54.3553 50.1823 54.2072 50.1243 54.0591 50.0663C54.0591 50.0663 53.9821 50.046 53.9439 49.9535C53.7543 49.8042 53.6029 49.7475 53.4514 49.6907C53.3125 49.6168 53.1736 49.5428 52.9772 49.3671C52.7671 49.2133 52.6143 49.1614 52.4616 49.1094C52.322 49.0382 52.1825 48.967 51.9865 48.7918C51.6503 48.5653 51.3704 48.4429 51.0905 48.3204C50.3701 47.9745 49.6496 47.6285 48.8518 47.1789C48.3487 46.9223 47.9229 46.7693 47.497 46.6163C47.378 46.5732 47.2589 46.5301 47.0669 46.387C46.7015 46.2015 46.409 46.1159 46.1166 46.0304C45.9969 45.9918 45.8772 45.9532 45.6841 45.8189C45.4501 45.6963 45.2896 45.6695 45.1291 45.6426C45.0093 45.6051 44.8894 45.5677 44.6974 45.4333C42.4554 44.6496 40.2941 43.9347 38.1108 43.2923C37.4212 43.0894 36.673 43.0804 35.9516 42.9826C35.8684 42.9743 35.7852 42.9661 35.6297 42.8763C35.36 42.7912 35.1626 42.7876 34.9653 42.784C34.8822 42.7756 34.7992 42.7673 34.6333 42.675C34.2282 42.5898 33.906 42.5885 33.5838 42.5872C33.4418 42.5768 33.2997 42.5664 33.0606 42.4731C32.5789 42.386 32.1943 42.3819 31.8096 42.3779C31.7261 42.377 31.6426 42.3761 31.4715 42.293C30.933 42.2052 30.4822 42.1996 30.0314 42.1941C29.3099 42.1813 28.5884 42.1685 27.7501 42.0815C27.2348 42.0452 26.8362 42.0831 26.4377 42.1211C26.1075 42.151 25.7774 42.1808 25.3119 42.1569C24.7425 42.18 24.3084 42.257 23.8743 42.334C23.7921 42.3521 23.71 42.3702 23.509 42.3331C22.4313 42.4804 21.4724 42.6831 20.5136 42.8858C20.4346 42.9155 20.3555 42.9452 20.1645 42.9301C18.6935 43.4112 17.3344 43.9371 15.9753 44.4629C15.7849 44.5678 15.5945 44.6726 15.2783 44.7808C15.0362 44.8905 14.9199 44.9969 14.8035 45.1032C14.3285 45.432 13.8535 45.7607 13.2624 46.1236C13.0419 46.2736 12.9375 46.3892 12.8331 46.5049C12.2636 47.0528 11.6942 47.6006 11.025 48.2116C10.8538 48.4136 10.7822 48.5523 10.7106 48.6911C10.4394 49.0845 10.1682 49.4778 9.80493 49.9452C9.65969 50.1659 9.60647 50.3127 9.55326 50.4594C9.52182 50.5243 9.49037 50.5892 9.37582 50.7285C9.1934 51.0827 9.0941 51.3625 8.99479 51.6423C8.9484 51.7596 8.902 51.8768 8.7758 52.0858C8.61512 52.5215 8.53425 52.8655 8.45338 53.2095C8.42749 53.2819 8.4016 53.3542 8.31192 53.5247C8.24854 53.7444 8.24895 53.866 8.24936 53.9876C8.22607 54.0603 8.20278 54.1329 8.12325 54.2831C8.07365 54.4762 8.0803 54.5919 8.08695 54.7076C8.06391 54.8359 8.04085 54.9642 7.9563 55.1904C7.89213 55.5492 7.88947 55.8102 7.88681 56.0713C7.88473 57.3753 7.88264 58.6794 7.852 60.1242C7.87233 60.5783 7.9212 60.8917 7.97008 61.2051C8.0039 61.4561 8.03772 61.707 8.04689 62.0743C8.07502 62.3811 8.12782 62.5716 8.18061 62.7621C8.2062 62.8909 8.23179 63.0197 8.23455 63.2545C8.27548 63.549 8.33924 63.7374 8.403 63.9258C8.41973 63.9982 8.43646 64.0706 8.43219 64.2324C8.45645 64.4282 8.5017 64.5345 8.54695 64.6408C8.56715 64.7143 8.58736 64.7877 8.59582 64.9677C8.64331 65.2127 8.70256 65.3511 8.76181 65.4894C8.78453 65.5605 8.80724 65.6315 8.81199 65.7893C8.85617 66.0063 8.91832 66.1365 8.98047 66.2667C9.16547 66.83 9.35046 67.3932 9.54532 68.0913C9.70794 68.5422 9.86069 68.8582 10.0134 69.1741C10.1119 69.4244 10.2104 69.6746 10.3197 70.0442C10.4177 70.2902 10.5049 70.4169 10.592 70.5436C11.0127 71.3798 11.4334 72.2161 11.8755 73.1742C12.0001 73.4119 12.1033 73.5278 12.2066 73.6437C12.2864 73.7792 12.3662 73.9147 12.4664 74.162C12.592 74.3877 12.6973 74.5017 12.8025 74.6156C13.065 75.0154 13.3274 75.4152 13.6205 75.9299C13.7632 76.1527 13.8752 76.2608 13.9873 76.3688C13.9873 76.3688 14.0274 76.4343 14.0444 76.5273C14.1758 76.7259 14.2902 76.8317 14.4046 76.9375C14.4669 77.0239 14.5292 77.1102 14.6189 77.3014C14.7629 77.5099 14.8794 77.6137 14.9959 77.7174C15.1179 77.869 15.2398 78.0206 15.3964 78.2795C15.5511 78.4868 15.6711 78.5869 15.7911 78.6869C15.9757 78.9037 16.1603 79.1205 16.386 79.45C16.8736 79.9848 17.32 80.4067 17.7664 80.8287C18.0622 81.128 18.358 81.4274 18.7104 81.8307C19.0372 82.1386 19.3074 82.3424 19.5776 82.5463C19.8608 82.7943 20.144 83.0423 20.4852 83.3898C20.6825 83.5638 20.8217 83.6383 20.9609 83.7128C21.1129 83.8352 21.2649 83.9576 21.4743 84.1749C21.6734 84.3397 21.8151 84.4096 21.9568 84.4795C22.043 84.543 22.1292 84.6065 22.271 84.7601C22.469 84.9175 22.6115 84.9846 22.754 85.0518C22.754 85.0518 22.8179 85.0951 22.863 85.1758C23.0527 85.3204 23.1973 85.3842 23.3418 85.4481C23.3418 85.4481 23.4064 85.4901 23.4523 85.5702C23.6431 85.7133 23.7881 85.7762 23.933 85.8391C23.933 85.8391 23.9976 85.881 24.0435 85.9612C24.2346 86.1038 24.3798 86.1663 24.5251 86.2287C24.5251 86.2287 24.5905 86.2699 24.6414 86.3514C24.9676 86.5561 25.243 86.6793 25.5183 86.8025C25.6569 86.8795 25.7955 86.9565 26.007 87.1215C27.9215 88.0132 29.7315 88.9017 31.6172 89.5875C32.687 89.9766 33.8809 90.0336 35.0188 90.2401C35.1518 90.2561 35.2847 90.2721 35.5475 90.343C37.0826 90.3676 38.4879 90.3373 39.8932 90.307C39.9696 90.2992 40.0461 90.2913 40.2522 90.3086C40.6795 90.2594 40.9771 90.1849 41.2747 90.1104C41.3498 90.0983 41.4249 90.0861 41.6309 90.0955C42.3067 90.0031 42.8865 89.9706 43.3898 89.7598C44.816 89.1624 46.2109 88.4922 47.6181 87.8507C47.6181 87.8507 47.6872 87.814 47.7833 87.8046C47.9896 87.6836 48.0998 87.572 48.2101 87.4604C48.296 87.3968 48.3819 87.3331 48.5752 87.2392C48.8498 87.0279 49.0169 86.8469 49.184 86.6658C49.4859 86.3731 49.7877 86.0804 50.1937 85.7333C50.3728 85.5413 50.4478 85.4037 50.5228 85.266C50.6667 85.0667 50.8105 84.8675 51.0453 84.5987C51.1931 84.3841 51.2499 84.2391 51.3068 84.0941C51.4674 83.7765 51.6279 83.4589 51.8729 83.0409C52.0373 82.4696 52.1172 81.9985 52.1971 81.5275C52.2197 81.3972 52.2422 81.2669 52.3188 81.0123C52.3431 80.3426 52.3135 79.7971 52.2839 79.2516C52.2686 79.1195 52.2534 78.9874 52.2614 78.726C52.2212 78.4255 52.1575 78.2541 52.0939 78.0827C52.0783 78.0086 52.0627 77.9344 52.0629 77.7534C52.0113 77.5092 51.9441 77.3718 51.8769 77.2345C51.7507 76.8658 51.6245 76.4971 51.4859 75.9925C51.1165 75.2223 50.7595 74.5881 50.4025 73.9538C50.1977 73.6239 49.993 73.294 49.7614 72.8484C49.6229 72.6238 49.5113 72.5149 49.3997 72.406C49.3389 72.3185 49.2782 72.231 49.1909 72.0385C49.0481 71.8293 48.9317 71.7251 48.8152 71.6209C48.7495 71.5372 48.6837 71.4534 48.5867 71.2641C48.3744 70.9913 48.1933 70.8241 48.0123 70.6568C47.7011 70.3084 47.3899 69.9599 47.031 69.4997C46.5916 69.0422 46.1999 68.6965 45.8081 68.3508C45.5251 68.1026 45.2421 67.8544 44.9007 67.5051C44.6364 67.2668 44.4305 67.1296 44.2247 66.9925C44.0721 66.8709 43.9194 66.7494 43.709 66.5336C43.5114 66.3665 43.3718 66.2936 43.2321 66.2207C43.1463 66.1569 43.0605 66.0931 42.9175 65.9406C42.7178 65.7849 42.5751 65.7179 42.4325 65.6509C42.4325 65.6509 42.3693 65.6074 42.3249 65.5264C42.1367 65.3798 41.993 65.3142 41.8492 65.2487C41.8492 65.2487 41.7855 65.2057 41.7382 65.1224C41.3499 64.8479 41.0089 64.6568 40.6679 64.4656C40.6679 64.4656 40.602 64.425 40.5534 64.3459C40.3577 64.2092 40.2107 64.1514 40.0636 64.0937C39.9234 64.0193 39.7831 63.945 39.5691 63.7835C38.8617 63.3621 38.241 63.0006 37.5921 62.6983C35.2651 61.6145 32.8468 60.766 30.246 60.8632C29.1649 60.9037 28.1009 61.3926 27.0292 61.6776C27.0292 61.6776 26.9587 61.7113 26.8625 61.7195C26.6539 61.8371 26.5415 61.9466 26.4291 62.056C26.4291 62.056 26.363 62.096 26.2646 62.1154C25.9434 62.3895 25.7206 62.6442 25.4977 62.8988C25.4333 62.9838 25.3688 63.0687 25.2155 63.2125C25.0652 63.415 25.0039 63.5586 24.9425 63.7022C24.8483 63.8918 24.7541 64.0814 24.5803 64.3558C24.4805 64.5928 24.4603 64.7449 24.4401 64.8971C24.4144 64.9694 24.3887 65.0417 24.2985 65.2114C24.2387 65.4309 24.2435 65.5531 24.2483 65.6752C24.226 65.806 24.2038 65.9368 24.1228 66.185C24.0977 66.7222 24.1314 67.1419 24.1651 67.5616C24.1945 67.7787 24.2239 67.9958 24.2299 68.3092C24.2617 68.5368 24.317 68.6681 24.3723 68.7994C24.3929 68.8709 24.4136 68.9423 24.4167 69.1147C24.5359 69.5276 24.6726 69.8395 24.8094 70.1514C24.853 70.2705 24.8966 70.3896 24.9502 70.633C25.1855 71.1335 25.4109 71.5097 25.6362 71.8858C25.7141 72.0225 25.792 72.1592 25.8918 72.4073C26.0215 72.6306 26.1293 72.7425 26.237 72.8543C26.237 72.8543 26.2747 72.9216 26.29 73.0153C26.4206 73.214 26.5358 73.3191 26.6511 73.4241C26.7704 73.5779 26.8897 73.7317 27.0422 73.9931C27.1937 74.2026 27.3121 74.3045 27.4304 74.4065C28.0547 75.03 28.679 75.6536 29.3617 76.3811C29.6256 76.6235 29.831 76.7619 30.0364 76.9003C30.1195 76.9678 30.2026 77.0352 30.3422 77.1927C30.5423 77.3486 30.6858 77.4144 30.8293 77.4802C30.8293 77.4802 30.8939 77.5228 30.941 77.6025C31.1322 77.7452 31.2763 77.8081 31.4205 77.8709C31.4205 77.8709 31.4858 77.9126 31.5332 77.9924C31.7255 78.1337 31.8704 78.1954 32.0153 78.257C32.0153 78.257 32.0811 78.2977 32.1292 78.377C32.324 78.515 32.4706 78.5737 32.6173 78.6323C32.7572 78.7074 32.897 78.7825 33.1091 78.941C33.3328 79.0659 33.4843 79.1074 33.6358 79.1489C33.8803 79.2684 34.1248 79.388 34.4618 79.5962C35.762 80.0218 36.9697 80.3589 38.1774 80.6959C38.2514 80.7135 38.3253 80.7311 38.5089 80.8104C38.8629 80.8886 39.1073 80.9051 39.3516 80.9215C39.428 80.9312 39.5044 80.9409 39.702 81.0039C40.9649 81.0209 42.1066 80.9846 43.2483 80.9483C43.3241 80.9403 43.3999 80.9324 43.5954 80.9494C43.8509 80.9941 43.9867 81.014 44.4195 81.0772C43.5966 81.4362 43.0567 81.741 42.4762 81.9104C41.299 82.254 40.0998 82.5244 38.9097 82.825C38.8341 82.8318 38.7584 82.8387 38.5382 82.8139C35.3342 82.9135 32.4249 82.3083 29.6491 81.0472C28.9144 80.7134 28.1791 80.381 27.444 80.048C27.444 80.048 27.3786 80.0067 27.3307 79.9275C27.1382 79.7864 26.9934 79.7244 26.8487 79.6625C26.8487 79.6625 26.7845 79.6198 26.737 79.5405C26.5449 79.3989 26.4002 79.3365 26.2556 79.2742C26.2556 79.2742 26.192 79.2309 26.146 79.1505C25.9558 79.0066 25.8115 78.943 25.6673 78.8795C25.5793 78.8186 25.4912 78.7577 25.3482 78.6072C25.1542 78.4441 25.0151 78.3706 24.876 78.2971C24.724 78.1749 24.5719 78.0527 24.3636 77.8331C24.1035 77.5966 23.8995 77.4573 23.6955 77.3181C22.9329 76.5716 22.1703 75.825 21.3667 74.9676C21.2056 74.7568 21.0856 74.6569 20.9656 74.5571C20.8424 74.4063 20.7191 74.2556 20.5632 73.9975C20.4151 73.7857 20.2996 73.6813 20.1841 73.5769C20.1204 73.4915 20.0567 73.4061 19.9656 73.217C19.8273 73.0049 19.7164 72.8965 19.6055 72.7881C19.6055 72.7881 19.5672 72.7213 19.5533 72.6281C19.4305 72.4241 19.3215 72.3134 19.2126 72.2026C19.2126 72.2026 19.1749 72.1353 19.1626 72.0427C19.0482 71.8345 18.946 71.7189 18.8439 71.6033C18.6269 71.2164 18.41 70.8295 18.1742 70.3197C18.003 69.9468 17.8507 69.6966 17.6983 69.4465C17.6489 69.3297 17.5994 69.2129 17.5436 68.9809C17.4555 68.7361 17.3737 68.6064 17.2919 68.4767C17.2481 68.3577 17.2043 68.2388 17.1552 67.9914C17.0249 67.5684 16.8999 67.2738 16.7749 66.9792C16.7567 66.9051 16.7386 66.831 16.7267 66.6446C16.6779 66.4215 16.6229 66.3108 16.5679 66.2001C16.5546 66.1255 16.5414 66.0509 16.5423 65.857C16.4937 65.5673 16.4308 65.3967 16.368 65.2261C16.3508 65.0943 16.3336 64.9626 16.3377 64.6944C16.3006 64.2612 16.2421 63.9644 16.1837 63.6677C16.1808 63.2061 16.178 62.7445 16.2182 62.1325C16.2675 61.6796 16.2736 61.3771 16.2796 61.0747C16.3098 60.8832 16.34 60.6917 16.4287 60.3859C16.4932 60.1521 16.4992 60.0326 16.5053 59.9132C16.5235 59.839 16.5416 59.7647 16.6207 59.5867C16.7595 59.1734 16.8374 58.8637 16.9153 58.5541C16.9579 58.4353 17.0005 58.3166 17.1273 58.1104C17.3881 57.621 17.5648 57.219 17.7416 56.817C17.8229 56.6827 17.9041 56.5484 18.074 56.3483C18.2283 56.1416 18.2941 56.0007 18.3599 55.8598C18.4239 55.7746 18.4878 55.6895 18.6415 55.5482C18.8044 55.3546 18.8777 55.2171 18.9509 55.0796C19.5116 54.5228 20.0722 53.9661 20.7452 53.3711C20.9637 53.2193 21.0698 53.1057 21.1759 52.9922C21.1759 52.9922 21.2434 52.9541 21.3382 52.9425C21.5453 52.8223 21.6576 52.7138 21.7699 52.6052C21.7699 52.6052 21.8374 52.5672 21.9426 52.552C24.6828 51.0599 27.5404 50.6102 30.5184 50.8139C33.9034 51.0454 37.0955 52.0309 40.1846 53.3678C41.2904 53.8463 42.3779 54.3661 43.4737 54.867C43.6122 54.9436 43.7507 55.0202 43.9609 55.1853C44.308 55.3962 44.5834 55.5186 44.8588 55.641C44.8588 55.641 44.9267 55.6793 44.9777 55.7597C45.2981 55.973 45.5675 56.1059 45.8369 56.2388C45.8369 56.2388 45.903 56.2788 45.9509 56.3576C46.1455 56.4955 46.2922 56.5545 46.4388 56.6135C46.4388 56.6135 46.5047 56.6544 46.5506 56.734C46.7408 56.8778 46.8851 56.9419 47.0294 57.006C47.0294 57.006 47.0932 57.049 47.1374 57.1299C47.3247 57.2775 47.4679 57.3443 47.611 57.4111C47.611 57.4111 47.674 57.4551 47.7196 57.5376C47.9812 57.7389 48.1972 57.8579 48.4133 57.9768C48.4133 57.9768 48.4747 58.0227 48.5172 58.1067C48.771 58.3188 48.9823 58.447 49.1936 58.5752C49.2778 58.6409 49.362 58.7066 49.4992 58.8635C49.6916 59.0286 49.8309 59.1025 49.9702 59.1765C50.1226 59.2982 50.275 59.4199 50.484 59.6384C50.7467 59.8719 50.9528 60.0085 51.1589 60.1452C51.4411 60.3942 51.7233 60.6433 52.0633 60.996C53.0371 61.9635 53.9531 62.8273 54.8692 63.6911C55.1835 64.0369 55.4979 64.3827 55.8539 64.8376C56.0161 65.0458 56.1366 65.145 56.2571 65.2442C56.3803 65.395 56.5035 65.5457 56.6616 65.8054C56.8711 66.0863 57.0458 66.2584 57.2204 66.4305C57.4184 66.7011 57.6163 66.9716 57.8459 67.3546C57.9919 67.5728 58.1063 67.6786 58.2206 67.7845C58.4868 68.1818 58.753 68.5792 59.0443 69.0926C59.1752 69.3224 59.2811 69.4361 59.3869 69.5497C59.4667 69.6853 59.5466 69.8208 59.6456 70.0673C59.7669 70.295 59.869 70.4117 59.9711 70.5284C60.3956 71.3631 60.8201 72.1978 61.2591 73.168C61.7973 74.8311 62.3211 76.3587 62.8448 77.8862C62.8592 77.9599 62.8735 78.0336 62.869 78.2262C62.9094 78.517 62.9688 78.6887 63.0282 78.8605C63.0475 78.9921 63.0668 79.1237 63.0624 79.3965C63.1023 79.8963 63.1657 80.2549 63.2291 80.6135C63.2332 81.333 63.2373 82.0524 63.1896 82.9074C63.1375 83.3373 63.1372 83.6318 63.1368 83.9262C63.1051 84.1424 63.0735 84.3586 62.9798 84.6878C62.911 84.9823 62.9043 85.1637 62.8976 85.345C62.8799 85.4189 62.8623 85.4928 62.7818 85.6631C62.7173 85.8821 62.7156 86.0046 62.714 86.1271C62.6922 86.2003 62.6704 86.2735 62.5789 86.445C62.4344 86.8563 62.3595 87.1693 62.2847 87.4824C62.24 87.6004 62.1952 87.7185 62.0727 87.9233C61.963 88.1597 61.931 88.3095 61.899 88.4593C61.6054 89.035 61.3118 89.6106 60.9266 90.2637C60.777 90.4854 60.7191 90.6297 60.6612 90.774C60.5793 90.9079 60.4973 91.0419 60.3281 91.2459C60.187 91.4618 60.1331 91.6077 60.0792 91.7535C59.8783 92.0226 59.6774 92.2917 59.3752 92.622C59.066 92.9469 58.858 93.2108 58.6499 93.4746C58.4816 93.6426 58.3133 93.8106 58.0372 94.0203C57.7643 94.2444 57.5991 94.4269 57.4339 94.6094C57.2808 94.7303 57.1277 94.8512 56.8668 95.006C56.6558 95.1569 56.5526 95.2741 56.4494 95.3913C56.3623 95.4532 56.2751 95.5152 56.0821 95.6019C55.8674 95.7383 55.7585 95.85 55.6496 95.9617C55.6496 95.9617 55.5832 96.0015 55.4895 96.0146C55.2803 96.1312 55.1648 96.2347 55.0493 96.3383C55.0493 96.3383 54.9799 96.374 54.8753 96.387C54.2629 96.6835 53.7551 96.9671 53.2473 97.2507C53.1306 97.3037 53.0138 97.3567 52.765 97.4247C51.0196 97.8958 49.4062 98.3519 47.7928 98.8081C47.718 98.8173 47.6432 98.8265 47.4292 98.8098C46.146 98.8596 45.0029 98.964 43.8576 99.0028C42.6504 99.0436 41.4411 99.0217 40.2328 99.0272C40.1577 99.0173 40.0826 99.0074 39.8938 98.9384C35.5891 98.4809 31.5441 97.5007 27.6473 95.924C27.112 95.7075 26.562 95.5262 26.0189 95.3286C25.1731 94.9071 24.3274 94.4856 23.3995 93.9724C23.0459 93.753 22.7745 93.6252 22.5031 93.4974C22.5031 93.4974 22.4363 93.458 22.3833 93.3786C22.0598 93.1692 21.7893 93.0393 21.5188 92.9093C21.5188 92.9093 21.4527 92.869 21.403 92.7911C21.2062 92.656 21.0592 92.5989 20.9122 92.5417C20.9122 92.5417 20.8461 92.5006 20.7962 92.4194C20.4797 92.2009 20.2131 92.0636 19.9466 91.9263C19.9466 91.9263 19.8815 91.8837 19.8335 91.8045C19.6423 91.6618 19.4991 91.5983 19.3559 91.5348C19.269 91.4723 19.1822 91.4099 19.0384 91.2584C18.8388 91.102 18.6963 91.0346 18.5537 90.9672C18.4675 90.9039 18.3813 90.8406 18.2418 90.6862C18.0496 90.5208 17.9108 90.4464 17.7719 90.3721C17.619 90.2508 17.4662 90.1295 17.2565 89.9135C17.0631 89.7416 16.9263 89.6644 16.7896 89.5871C16.5725 89.402 16.3555 89.2169 16.0799 88.9307C15.6856 88.5624 15.3498 88.295 15.0139 88.0277C14.3851 87.4095 13.7563 86.7914 13.0803 86.0616C12.7824 85.7235 12.5318 85.4969 12.2811 85.2703C11.9706 84.9213 11.66 84.5724 11.3081 84.1141C11.1452 83.9065 11.0237 83.8081 10.9023 83.7097C10.7213 83.4899 10.5404 83.2702 10.3224 82.9423C10.1665 82.7332 10.0476 82.632 9.9288 82.5308C9.86394 82.4464 9.79908 82.3619 9.7058 82.1739C9.56374 81.9642 9.4501 81.8581 9.33647 81.752C9.27503 81.6649 9.21359 81.5779 9.12491 81.387C8.98431 81.1767 8.87095 81.0703 8.75759 80.9639C8.75759 80.9639 8.71731 80.8985 8.7003 80.806C8.57172 80.6053 8.46014 80.4973 8.34856 80.3893C7.82139 79.6022 7.29422 78.8151 6.74167 77.9108C6.61385 77.6781 6.51143 77.5625 6.409 77.447C5.45881 75.6388 4.50862 73.8306 3.54681 71.9009C3.44951 71.6523 3.36382 71.5252 3.27814 71.3981C3.17456 71.1496 3.07099 70.9011 2.96176 70.5334C2.87515 70.2856 2.79418 70.1568 2.71322 70.0281C2.59702 69.7205 2.48082 69.413 2.35578 68.9651C2.08987 68.1446 1.83279 67.4645 1.5757 66.7843C1.5007 66.521 1.4257 66.2576 1.35417 65.8695C1.2993 65.6367 1.24097 65.5288 1.18264 65.4208C1.16529 65.3465 1.14794 65.2722 1.13375 65.0856C1.0833 64.8628 1.02971 64.7522 0.97611 64.6416C0.961236 64.5673 0.946363 64.4929 0.942445 64.307C0.900402 64.0844 0.847401 63.9734 0.7944 63.8624C0.781689 63.7864 0.768978 63.7103 0.768508 63.5136C0.716063 63.2247 0.651373 63.0566 0.586684 62.8885C0.565271 62.7568 0.543857 62.6251 0.536349 62.3736C0.502338 62.1406 0.454421 62.0275 0.406505 61.9144C0.388821 61.7809 0.371138 61.6474 0.369792 61.3798C0.324854 61.0141 0.263582 60.7825 0.202309 60.5509C0.182455 60.3576 0.1626 60.1643 0.161713 59.8245C0.12101 59.3196 0.0613395 58.9613 0.00166775 58.603C-0.0015036 57.0381 -0.0046767 55.4732 0.0380385 53.7568C0.0882786 53.3033 0.0926294 53.0013 0.0969799 52.6994C0.125854 52.508 0.154729 52.3167 0.233421 51.9975C0.285708 51.6916 0.288181 51.5135 0.290652 51.3354C0.324014 51.144 0.357376 50.9526 0.446056 50.6451C0.506002 50.4103 0.51063 50.2917 0.515259 50.1731C0.533507 50.0991 0.551757 50.0251 0.624237 49.8425C0.695968 49.5575 0.71347 49.3811 0.730971 49.2048C0.804544 48.9409 0.878116 48.677 1.01776 48.2971C1.29555 47.4834 1.50726 46.7857 1.71898 46.088C1.76053 45.9688 1.80209 45.8496 1.92336 45.6448C2.04021 45.4108 2.07735 45.2625 2.11448 45.1141C2.16252 44.9969 2.21056 44.8797 2.34075 44.6709C2.6605 44.0487 2.8981 43.5181 3.13569 42.9874C3.27985 42.7256 3.424 42.4637 3.65978 42.1304C3.81321 41.9161 3.87501 41.7733 3.93682 41.6305C3.93682 41.6305 3.97745 41.5652 4.05662 41.517C4.19831 41.3263 4.26084 41.1836 4.32336 41.041C4.32336 41.041 4.36424 40.9756 4.44334 40.9285C4.59306 40.7431 4.66368 40.6048 4.7343 40.4666C5.61928 39.5159 6.50426 38.5651 7.5116 37.5873C7.73047 37.4356 7.82698 37.3109 7.92349 37.1862C8.13359 36.9946 8.34369 36.803 8.67374 36.5967C8.90218 36.4682 9.01067 36.3544 9.11916 36.2407C9.51212 35.9665 9.90507 35.6922 10.424 35.4104C10.6653 35.2931 10.7807 35.1834 10.8961 35.0737C10.8961 35.0737 10.9529 35.0188 11.0543 35.0223C11.2685 34.9178 11.3812 34.8097 11.4939 34.7016C12.332 34.277 13.1702 33.8524 14.1509 33.433C15.536 32.9739 16.7787 32.5097 18.0213 32.0455C18.0996 32.0137 18.1779 31.9819 18.3625 31.9911C18.8449 31.8996 19.221 31.767 19.5971 31.6344C19.677 31.6085 19.757 31.5827 19.9459 31.6039C20.4954 31.5221 20.9359 31.3932 21.3763 31.2643C21.5154 31.2307 21.6545 31.197 21.898 31.2104C22.1886 31.1957 22.3748 31.1338 22.5609 31.072C22.7001 31.0385 22.8392 31.005 23.0898 31.0197C23.4482 31.0036 23.6951 30.9393 23.9421 30.875C24.144 30.8414 24.3459 30.8077 24.6738 30.8263C25.1711 30.8074 25.5424 30.7362 25.9136 30.6651C26.2437 30.6333 26.5737 30.6015 27.048 30.6293C27.8718 30.6962 28.5516 30.7217 29.2306 30.707C30.481 30.6798 31.7309 30.6291 32.981 30.5882C33.4414 30.6017 33.9019 30.6153 34.4754 30.71C34.9738 30.788 35.3592 30.7849 35.7445 30.7817C35.9487 30.7913 36.1529 30.8009 36.4548 30.8927C36.8747 30.9801 37.1969 30.9852 37.519 30.9903C37.6024 30.9931 37.6858 30.9959 37.8511 31.0792C38.2555 31.1684 38.5781 31.177 38.9006 31.1856C38.9839 31.1902 39.0671 31.1947 39.229 31.2796C39.5671 31.3645 39.8265 31.3689 40.0859 31.3734C40.1693 31.3776 40.2526 31.3819 40.4087 31.4636C40.6792 31.5455 40.8769 31.5498 41.0747 31.5541C41.1579 31.561 41.2412 31.568 41.3959 31.6543C41.6652 31.7406 41.8631 31.7474 42.0609 31.7542C42.1441 31.7613 42.2274 31.7685 42.3825 31.8556C42.6518 31.9431 42.8492 31.9507 43.0466 31.9582C43.1298 31.9684 43.213 31.9786 43.3632 32.0667C43.566 32.1432 43.7019 32.1418 43.8378 32.1405C43.921 32.1497 44.0042 32.1588 44.1721 32.2578C45.17 32.5374 46.0831 32.7272 46.9963 32.9171C47.0796 32.931 47.1629 32.945 47.3282 33.0515C48.5523 33.5264 49.6913 33.918 50.8374 34.2879C51.7566 34.5846 52.6845 34.855 53.6085 35.1371C53.7279 35.1761 53.8474 35.215 54.0402 35.3498C54.2736 35.473 54.4338 35.5005 54.5939 35.5279C54.7137 35.5669 54.8335 35.6058 55.0261 35.7427C55.3922 35.9296 55.6856 36.0186 55.9789 36.1077C56.0976 36.1506 56.2164 36.1936 56.4052 36.334C57.4153 36.8596 58.3552 37.2877 59.2951 37.7159C59.8241 37.9822 60.3531 38.2486 60.9482 38.6202C61.1659 38.7777 61.3174 38.83 61.4689 38.8823C61.736 39.0218 62.003 39.1614 62.3306 39.4043C62.5384 39.5641 62.6858 39.6205 62.8332 39.6769C62.8332 39.6769 62.9114 39.6972 62.9505 39.7892C63.1394 39.939 63.2892 39.9969 63.439 40.0547C64.7646 40.9599 66.0901 41.865 67.4698 42.8797C67.6652 43.0584 67.8064 43.1278 67.9477 43.1971C68.1068 43.3115 68.266 43.4259 68.4692 43.6479C68.6537 43.8292 68.7941 43.9027 68.9346 43.9763C69.8853 44.7948 70.836 45.6133 71.8266 46.5482C72.0016 46.7467 72.1369 46.8287 72.2721 46.9107C72.6423 47.2648 73.0124 47.6189 73.4159 48.092C73.642 48.3658 73.8348 48.5205 74.0277 48.6751C75.0062 49.7942 75.9848 50.9133 76.985 52.1538C77.1257 52.3764 77.2447 52.4775 77.3637 52.5786C78.5611 54.3953 79.7585 56.2119 80.9604 58.1585C81.1297 58.5325 81.2945 58.7766 81.4593 59.0207C81.5626 59.206 81.6659 59.3912 81.7646 59.6976C81.8526 59.9432 81.9452 60.0676 82.0377 60.192C82.6888 61.8548 83.3398 63.5175 83.9709 65.3066C84.0214 65.5706 84.0919 65.7081 84.1623 65.8456C84.2351 66.0796 84.308 66.3135 84.3579 66.685C84.3952 66.9402 84.4555 67.0578 84.5157 67.1755C84.5479 67.2944 84.58 67.4132 84.5823 67.6576C84.6098 67.9058 84.6672 68.0285 84.7246 68.1511C84.7519 68.2705 84.7792 68.3899 84.772 68.6402C84.8019 68.9545 84.8662 69.1378 84.9305 69.3211C84.9626 69.4987 84.9946 69.6762 84.9867 69.9891C85.0024 70.3105 85.058 70.4966 85.1137 70.6826C85.1606 71.1519 85.2076 71.6212 85.1952 72.2295C85.169 73.2965 85.2021 74.2243 85.2352 75.1521C85.207 75.5585 85.1787 75.9648 85.0825 76.4777C85.0233 76.7564 85.0321 76.9285 85.0408 77.1007C85.0133 77.3196 84.9857 77.5386 84.8824 77.8679C84.8117 78.1119 84.8168 78.2456 84.8219 78.3793C84.8036 78.5004 84.7853 78.6215 84.689 78.8451C84.6092 79.0807 84.6073 79.2137 84.6054 79.3468C84.5978 79.4123 84.5901 79.4778 84.5049 79.6333C84.4194 79.8569 84.4114 79.9906 84.4034 80.1243C84.3453 80.361 84.2872 80.5977 84.1382 80.9332C83.9612 81.3747 83.875 81.7175 83.7888 82.0603C82.2057 86.3973 79.4172 89.8452 75.6401 92.6712C75.4129 92.8017 75.3087 92.9155 75.2046 93.0293C74.2876 93.6328 73.3706 94.2363 72.3214 94.8446C71.9435 95.0189 71.6979 95.1886 71.4523 95.3583C70.7447 95.7169 70.0372 96.0755 69.197 96.4295C68.8039 96.572 68.5434 96.719 68.2829 96.8661C68.168 96.9204 68.053 96.9748 67.8158 97.0162C67.5615 97.0899 67.4296 97.1764 67.2976 97.263C67.1805 97.314 67.0635 97.3651 66.8065 97.4032C65.2963 97.8544 63.926 98.3184 62.5557 98.7825C62.4768 98.8131 62.3978 98.8438 62.2317 98.8348C62.0188 98.8593 61.8931 98.9235 61.7674 98.9877C61.6882 99.017 61.6091 99.0464 61.4431 99.0359C61.2304 99.0606 61.1046 99.1251 60.9788 99.1897C60.8989 99.2167 60.819 99.2437 60.6434 99.2251C60.3627 99.2499 60.1777 99.3204 59.9927 99.3909C59.9122 99.415 59.8317 99.4391 59.6555 99.4177C59.3749 99.4415 59.1899 99.5109 59.005 99.5803C58.9243 99.6042 58.8437 99.6281 58.6673 99.6056C58.3866 99.6271 58.2016 99.6949 58.0166 99.7627C57.9359 99.7874 57.8553 99.8121 57.6704 99.7912C57.3221 99.8211 57.0782 99.8968 56.8342 99.9724C56.7528 99.9933 56.6713 100.014 56.4922 99.9869C56.2351 99.8279 56.0757 99.7172 55.9163 99.6065C56.0286 99.552 56.1409 99.4974 56.3828 99.455C56.907 99.2648 57.3016 99.0624 57.6961 98.86C58.5402 98.4245 59.3844 97.9889 60.3623 97.5507C60.7415 97.375 60.9869 97.2018 61.2323 97.0287C61.3675 96.945 61.5026 96.8614 61.7591 96.7766C61.9933 96.6643 62.106 96.5531 62.2187 96.4419C62.2187 96.4419 62.2741 96.3834 62.3768 96.3851C62.5897 96.2749 62.7001 96.163 62.8104 96.0511C62.8104 96.0511 62.8659 95.9931 62.9686 95.9946C63.1815 95.8839 63.2918 95.7718 63.402 95.6596C63.402 95.6596 63.455 95.6009 63.5583 95.6009C63.7696 95.4829 63.8776 95.3648 63.9856 95.2468C64.0671 95.1777 64.1486 95.1086 64.3452 95.0306C64.5662 94.9043 64.6721 94.7869 64.778 94.6696C64.9294 94.5431 65.0808 94.4165 65.3506 94.2691C65.5663 94.1242 65.6635 94.0002 65.7607 93.8762C66.5157 93.1198 67.2706 92.3635 68.1429 91.5646C68.3396 91.3846 68.419 91.2471 68.4985 91.1097C68.6149 90.9528 68.7313 90.796 68.957 90.5929C69.1345 90.4026 69.2026 90.2585 69.2706 90.1144C69.5324 89.7146 69.7942 89.3147 70.1639 88.8544C70.3287 88.6454 70.3857 88.4968 70.4427 88.3482C70.7266 87.7686 71.0104 87.1889 71.3928 86.5274C71.5174 86.2872 71.5433 86.1289 71.5693 85.9707C71.6909 85.6051 71.8125 85.2396 72.0245 84.7838C72.1871 84.3107 72.2593 83.928 72.3315 83.5453C72.34 83.4633 72.3485 83.3813 72.4299 83.2284C72.5021 83.0257 72.5015 82.894 72.5009 82.7622C72.5249 82.5623 72.549 82.3623 72.646 82.0667C72.7135 81.7804 72.7081 81.5899 72.7026 81.3993C72.7259 80.946 72.7492 80.4926 72.8421 79.9252C72.8784 79.4825 72.8452 79.1539 72.8119 78.8253C72.7745 78.3085 72.737 77.7917 72.7512 77.1512C72.7393 76.7825 72.6756 76.5376 72.6119 76.2926C72.5732 76.0938 72.5345 75.895 72.5429 75.5896C72.524 75.2989 72.4581 75.1148 72.3921 74.9307C72.3671 74.8515 72.3421 74.7723 72.3581 74.6088C72.3387 74.3997 72.2784 74.2749 72.2181 74.1501C72.1911 74.0707 72.1641 73.9914 72.1799 73.8055C72.0842 73.33 71.9457 72.961 71.8072 72.5921C71.548 71.8371 71.2887 71.0821 71.04 70.1969C70.9623 69.936 70.874 69.8053 70.7858 69.6746C70.7319 69.562 70.6779 69.4493 70.6362 69.2111C70.4957 68.8275 70.3429 68.5694 70.1901 68.3114C69.7602 67.4773 69.3303 66.6433 68.8959 65.6825C68.7844 65.4387 68.6773 65.3216 68.5703 65.2044C68.4842 65.0721 68.3981 64.9398 68.3097 64.689C68.1995 64.4566 68.0917 64.3426 67.9838 64.2287C67.8952 64.0982 67.8065 63.9676 67.714 63.7182C67.5997 63.4857 67.4892 63.3722 67.3787 63.2587C67.1054 62.8642 66.8321 62.4698 66.5464 61.9523C66.4198 61.7216 66.3056 61.614 66.1914 61.5063C65.0738 60.1283 63.9562 58.7502 62.8129 57.2477C62.5281 56.9005 62.269 56.6777 62.0099 56.4549C61.5735 56.0342 61.1372 55.6135 60.6613 55.0765C60.4858 54.878 60.3499 54.7959 60.214 54.7138C59.7881 54.3478 59.3621 53.9819 58.8915 53.5019C58.7073 53.3126 58.5678 53.2372 58.4283 53.1619Z" fill="url(#paint0_radial_8_706)"/>
<path d="M45.964 22.3901C45.8831 22.3745 45.8022 22.359 45.6479 22.2727C45.4405 22.2038 45.3066 22.2055 45.1727 22.2073C45.0916 22.1926 45.0106 22.1779 44.8516 22.0861C44.5789 22.0007 44.3842 21.9924 44.1894 21.9842C44.1082 21.971 44.027 21.9578 43.8708 21.8761C43.6622 21.813 43.5285 21.8184 43.3949 21.8239C43.2556 21.7995 43.1164 21.775 42.8853 21.6774C42.6002 21.6031 42.407 21.602 42.2138 21.6009C42.1325 21.5911 42.0512 21.5812 41.8898 21.4979C41.6143 21.4267 41.4188 21.429 41.2234 21.4312C41.0029 21.3988 40.7823 21.3664 40.4651 21.2655C40.1931 21.207 40.0177 21.2171 39.8424 21.2271C39.7024 21.2112 39.5625 21.1954 39.3231 21.1028C38.9036 21.027 38.5834 21.028 38.2633 21.029C38.0621 21.0091 37.8608 20.9891 37.5465 20.8949C36.9868 20.8205 36.54 20.8204 36.0933 20.8204C35.4246 20.7963 34.7558 20.7723 33.9451 20.6792C32.786 20.6452 31.769 20.6803 30.7519 20.7153C30.1482 20.7552 29.5445 20.795 28.8072 20.7777C28.3134 20.784 27.9533 20.8476 27.5932 20.9111C27.3728 20.946 27.1524 20.981 26.8223 20.9656C26.4013 20.9834 26.09 21.0514 25.7787 21.1194C25.6397 21.1491 25.5006 21.1787 25.2523 21.162C24.8942 21.1842 24.6454 21.2527 24.3967 21.3212C24.3181 21.3489 24.2396 21.3766 24.0661 21.3652C23.7841 21.3932 23.5972 21.4604 23.4103 21.5275C23.3321 21.5557 23.2539 21.5839 23.0917 21.5736C22.8787 21.589 22.7496 21.6428 22.6205 21.6967C22.5417 21.7263 22.4629 21.7559 22.2711 21.7481C21.5224 21.9009 20.8869 22.0912 20.2513 22.2814C20.1731 22.3139 20.095 22.3464 19.9305 22.3467C19.7167 22.375 19.589 22.4355 19.4614 22.4959C18.7053 22.7618 17.9493 23.0276 17.0482 23.2801C16.4465 23.4835 15.9898 23.7002 15.5332 23.917C15.4249 23.9739 15.3166 24.0308 15.073 24.0736C14.2833 24.4192 13.6289 24.7789 12.9744 25.1385C12.7151 25.2919 12.4558 25.4452 12.0685 25.5962C11.8241 25.7016 11.7076 25.8094 11.5912 25.9171C11.4468 26.0136 11.3024 26.1101 11.0855 26.1395C11.0101 25.9036 11.0073 25.7349 11.0044 25.5662C21.3093 17.6248 33.045 13.8902 46.0136 14.3625C63.9563 15.0161 78.7145 22.3602 90.3006 35.9799C90.4594 36.1666 90.4784 36.4706 90.5626 36.7198C90.726 36.5912 90.8893 36.4626 91.0527 36.334C90.8252 35.7316 90.6559 35.0994 90.3615 34.5311C86.4921 27.0628 80.9191 21.0473 74.1941 16.0522C66.9203 10.6495 58.8481 6.96539 49.8911 5.32625C41.0483 3.70801 32.4067 4.39734 24.0353 7.78821C22.958 8.22458 21.8665 8.62645 20.7307 8.8741C31.0504 1.96346 42.455 -1.19244 54.8013 0.409399C74.772 3.00043 88.6573 13.8255 96.5315 32.3595C96.6007 32.6156 96.6797 32.7466 96.7587 32.8775C97.1549 34.0301 97.551 35.1828 97.9307 36.4617C97.9853 36.7237 98.0562 36.8594 98.1272 36.9952C98.3447 37.8129 98.5623 38.6307 98.753 39.5917C98.778 39.9201 98.8297 40.1052 98.8814 40.2902C98.9128 40.4729 98.9442 40.6555 98.9463 40.9694C98.9704 41.2226 99.0238 41.3445 99.0771 41.4665C99.1127 41.6482 99.1482 41.83 99.1543 42.1427C99.1772 42.397 99.2296 42.5204 99.2819 42.6438C99.3145 42.8255 99.3471 43.0073 99.3448 43.3255C99.3668 43.6469 99.4238 43.8317 99.4808 44.0165C99.5264 44.2969 99.572 44.5773 99.5755 44.9559C99.5789 45.1654 99.6244 45.2767 99.67 45.388C99.7172 45.7962 99.7644 46.2043 99.7627 46.7319C99.7672 47.0827 99.8208 47.3142 99.8743 47.5456C99.9208 48.2769 99.9672 49.0082 99.9549 49.8829C99.9308 50.8958 99.9654 51.7654 100 52.6349C99.9646 53.2996 99.9292 53.9643 99.8319 54.747C99.7827 55.0369 99.7953 55.2088 99.8079 55.3807C99.7762 55.7249 99.7445 56.0692 99.6499 56.5206C99.5933 56.8 99.5996 56.9723 99.6058 57.1447C99.5719 57.4268 99.538 57.7089 99.4347 58.108C99.3721 58.3563 99.3788 58.4876 99.3855 58.6189C99.3609 58.8027 99.3362 58.9865 99.2425 59.2858C99.1783 59.5328 99.1832 59.6642 99.1881 59.7956C99.1679 59.9185 99.1477 60.0414 99.0572 60.2724C98.9882 60.5123 98.9894 60.6442 98.9907 60.7762C98.9702 60.8992 98.9498 61.0222 98.8578 61.2514C98.7823 61.4887 98.7784 61.6197 98.7745 61.7507C98.7638 61.8177 98.7531 61.8847 98.6706 62.0463C98.5942 62.2733 98.5895 62.4057 98.5849 62.538C98.5087 62.8537 98.4326 63.1694 98.2777 63.5957C98.1904 63.8375 98.1818 63.9687 98.1732 64.0999C98.1134 64.3386 98.0537 64.5772 97.911 64.9168C97.8093 65.1682 97.7905 65.3186 97.7718 65.469C97.5271 66.2319 97.2824 66.9947 96.9461 67.8548C96.8249 68.1012 96.7953 68.2503 96.7657 68.3994C96.5988 68.844 96.432 69.2887 96.1696 69.8208C96.0398 70.0579 96.0056 70.2075 95.9715 70.3572C94.907 72.3799 93.8425 74.4026 92.7089 76.4706C92.557 76.4019 92.4742 76.2879 92.3914 76.1739C92.4027 76.0931 92.414 76.0123 92.4991 75.8641C92.5781 75.6611 92.5835 75.5254 92.5888 75.3897C92.5992 75.3088 92.6096 75.228 92.6926 75.0789C92.7673 74.8751 92.7694 74.7395 92.7715 74.6039C92.7888 74.4649 92.8062 74.3258 92.8999 74.1013C92.9811 73.8204 92.986 73.6251 92.9908 73.4298C93.0025 73.2904 93.0142 73.151 93.1016 72.919C93.1802 72.5699 93.1831 72.3135 93.1859 72.057C93.2038 71.7941 93.2217 71.5311 93.317 71.1521C93.3885 70.5266 93.3828 70.017 93.377 69.5075C93.3728 69.2323 93.3686 68.957 93.4219 68.5457C93.4116 67.9113 93.3439 67.4129 93.2761 66.9145C93.2422 66.5886 93.2083 66.2626 93.2247 65.8165C93.2107 65.4486 93.1465 65.201 93.0823 64.9533C93.047 64.7544 93.0116 64.5556 93.0204 64.2483C92.9977 63.9544 92.9309 63.7689 92.8641 63.5834C92.8341 63.4459 92.8041 63.3083 92.8131 63.076C92.792 62.8551 92.7319 62.7288 92.6718 62.6026C92.6494 62.5234 92.627 62.4442 92.6472 62.2684C92.6105 61.9896 92.5313 61.8075 92.4521 61.6254C92.3726 61.3549 92.293 61.0843 92.2482 60.7178C92.2142 60.4977 92.1456 60.3735 92.0769 60.2493C91.8195 59.4899 91.5621 58.7305 91.3148 57.8422C91.2398 57.5794 91.1548 57.4455 91.0698 57.3116C91.0196 57.1958 90.9694 57.08 90.9268 56.8437C90.8418 56.5939 90.7491 56.4646 90.6564 56.3352C89.2179 53.1157 87.4354 50.0982 85.2584 47.1765C85.1171 46.9508 84.9978 46.8476 84.8785 46.7445C81.8357 42.8913 78.32 39.5083 74.4402 36.3251C74.2485 36.1401 74.1076 36.0667 73.9667 35.9933C71.9119 34.5617 69.8571 33.13 67.7383 31.5923C67.5245 31.429 67.3748 31.3718 67.225 31.3145C67.0859 31.2383 66.9467 31.1621 66.7502 30.9856C66.5451 30.8287 66.3972 30.7719 66.2493 30.7152C65.7833 30.447 65.3173 30.1787 64.7822 29.8085C64.5607 29.6573 64.4082 29.608 64.2558 29.5586C63.7319 29.2818 63.2081 29.0049 62.6139 28.6243C61.3313 27.9597 60.1191 27.399 58.9068 26.8382C58.525 26.6725 58.1432 26.5067 57.6826 26.242C57.4484 26.1101 57.2929 26.0771 57.1373 26.0442C57.0143 26.0056 56.8912 25.9669 56.691 25.8339C56.4596 25.7101 56.3054 25.6805 56.1512 25.6509C56.0281 25.6118 55.9049 25.5727 55.7029 25.437C55.1395 25.1854 54.655 25.0304 54.1706 24.8754C54.048 24.8414 53.9254 24.8075 53.7253 24.6788C52.8892 24.3115 52.1417 24.0012 51.3692 23.7755C50.3667 23.4824 49.3442 23.2566 48.3303 23.0018C48.249 22.9863 48.1677 22.9708 48.0175 22.8791C47.813 22.8009 47.6773 22.7989 47.5417 22.7968C47.4607 22.7801 47.3797 22.7633 47.2276 22.6722C47.0221 22.596 46.8875 22.5941 46.753 22.5923C46.6722 22.5748 46.5913 22.5573 46.4382 22.4671C46.2319 22.3929 46.098 22.3915 45.964 22.3901Z" fill="url(#paint1_radial_8_706)"/>
</g>
<defs>
<radialGradient id="paint0_radial_8_706" cx="0" cy="0" r="1" gradientUnits="userSpaceOnUse" gradientTransform="translate(49.9506 53.1245) rotate(106.194) scale(49.7509 59.4745)">
<stop stop-color="#27BEFF"/>
<stop offset="1" stop-color="white"/>
</radialGradient>
<radialGradient id="paint1_radial_8_706" cx="0" cy="0" r="1" gradientUnits="userSpaceOnUse" gradientTransform="translate(63.1587 24.8281) rotate(105.389) scale(54.5929 62.3457)">
<stop stop-color="#27BEFF"/>
<stop offset="1" stop-color="white"/>
</radialGradient>
<clipPath id="clip0_8_706">
<rect width="100" height="100" fill="white"/>
</clipPath>
</defs>
</svg>
