<svg width="357" height="106" viewBox="0 0 357 106" fill="none" xmlns="http://www.w3.org/2000/svg">
<path d="M115.52 64.24C115.04 64.24 114.65 64.13 114.35 63.91C114.07 63.69 113.9 63.4 113.84 63.04C113.78 62.66 113.85 62.24 114.05 61.78L121.97 44.23C122.23 43.65 122.54 43.24 122.9 43C123.28 42.74 123.71 42.61 124.19 42.61C124.65 42.61 125.06 42.74 125.42 43C125.8 43.24 126.12 43.65 126.38 44.23L134.33 61.78C134.55 62.24 134.63 62.66 134.57 63.04C134.51 63.42 134.34 63.72 134.06 63.94C133.78 64.14 133.41 64.24 132.95 64.24C132.39 64.24 131.95 64.11 131.63 63.85C131.33 63.57 131.06 63.15 130.82 62.59L128.87 58.06L130.49 59.11H117.83L119.45 58.06L117.53 62.59C117.27 63.17 117 63.59 116.72 63.85C116.44 64.11 116.04 64.24 115.52 64.24ZM124.13 47.02L119.93 57.01L119.15 56.05H129.17L128.42 57.01L124.19 47.02H124.13ZM144.71 64.24C144.09 64.24 143.61 64.07 143.27 63.73C142.95 63.37 142.79 62.88 142.79 62.26V46.06H136.94C136.42 46.06 136.01 45.92 135.71 45.64C135.43 45.34 135.29 44.94 135.29 44.44C135.29 43.92 135.43 43.53 135.71 43.27C136.01 42.99 136.42 42.85 136.94 42.85H152.48C153 42.85 153.4 42.99 153.68 43.27C153.98 43.53 154.13 43.92 154.13 44.44C154.13 44.94 153.98 45.34 153.68 45.64C153.4 45.92 153 46.06 152.48 46.06H146.63V62.26C146.63 62.88 146.47 63.37 146.15 63.73C145.83 64.07 145.35 64.24 144.71 64.24ZM160.523 64.24C159.963 64.24 159.533 64.08 159.233 63.76C158.933 63.44 158.783 63 158.783 62.44V44.41C158.783 43.83 158.943 43.39 159.263 43.09C159.583 42.77 160.023 42.61 160.583 42.61C161.083 42.61 161.473 42.71 161.753 42.91C162.053 43.09 162.323 43.41 162.563 43.87L169.973 57.58H169.013L176.423 43.87C176.663 43.41 176.923 43.09 177.203 42.91C177.483 42.71 177.873 42.61 178.373 42.61C178.933 42.61 179.363 42.77 179.663 43.09C179.963 43.39 180.113 43.83 180.113 44.41V62.44C180.113 63 179.963 63.44 179.663 63.76C179.383 64.08 178.953 64.24 178.373 64.24C177.813 64.24 177.383 64.08 177.083 63.76C176.783 63.44 176.633 63 176.633 62.44V48.55H177.293L170.993 60.04C170.793 60.38 170.583 60.63 170.363 60.79C170.143 60.95 169.843 61.03 169.463 61.03C169.083 61.03 168.773 60.95 168.533 60.79C168.293 60.61 168.083 60.36 167.903 60.04L161.543 48.52H162.263V62.44C162.263 63 162.113 63.44 161.813 63.76C161.533 64.08 161.103 64.24 160.523 64.24ZM196.648 64.3C194.608 64.3 192.818 63.85 191.278 62.95C189.758 62.05 188.578 60.79 187.738 59.17C186.898 57.53 186.478 55.61 186.478 53.41C186.478 51.75 186.718 50.26 187.198 48.94C187.678 47.6 188.358 46.46 189.238 45.52C190.138 44.56 191.208 43.83 192.448 43.33C193.708 42.81 195.108 42.55 196.648 42.55C198.708 42.55 200.498 43 202.018 43.9C203.538 44.78 204.718 46.03 205.558 47.65C206.398 49.27 206.818 51.18 206.818 53.38C206.818 55.04 206.578 56.54 206.098 57.88C205.618 59.22 204.928 60.37 204.028 61.33C203.148 62.29 202.078 63.03 200.818 63.55C199.578 64.05 198.188 64.3 196.648 64.3ZM196.648 61C197.948 61 199.048 60.7 199.948 60.1C200.868 59.5 201.568 58.63 202.048 57.49C202.548 56.35 202.798 54.99 202.798 53.41C202.798 51.01 202.258 49.15 201.178 47.83C200.118 46.51 198.608 45.85 196.648 45.85C195.368 45.85 194.268 46.15 193.348 46.75C192.428 47.33 191.718 48.19 191.218 49.33C190.738 50.45 190.498 51.81 190.498 53.41C190.498 55.79 191.038 57.65 192.118 58.99C193.198 60.33 194.708 61 196.648 61ZM220.413 64.3C219.533 64.3 218.653 64.23 217.773 64.09C216.893 63.97 216.063 63.78 215.283 63.52C214.503 63.24 213.803 62.9 213.183 62.5C212.823 62.26 212.573 61.97 212.433 61.63C212.293 61.29 212.243 60.96 212.283 60.64C212.343 60.3 212.473 60.01 212.673 59.77C212.893 59.51 213.163 59.35 213.483 59.29C213.803 59.23 214.153 59.32 214.533 59.56C215.413 60.08 216.343 60.46 217.323 60.7C218.303 60.94 219.333 61.06 220.413 61.06C221.993 61.06 223.143 60.8 223.863 60.28C224.583 59.74 224.943 59.05 224.943 58.21C224.943 57.51 224.683 56.96 224.163 56.56C223.663 56.16 222.793 55.83 221.553 55.57L218.253 54.88C216.353 54.48 214.933 53.81 213.993 52.87C213.073 51.91 212.613 50.65 212.613 49.09C212.613 48.11 212.813 47.22 213.213 46.42C213.613 45.62 214.173 44.93 214.893 44.35C215.633 43.77 216.503 43.33 217.503 43.03C218.523 42.71 219.643 42.55 220.863 42.55C222.063 42.55 223.203 42.7 224.283 43C225.363 43.3 226.333 43.74 227.193 44.32C227.513 44.54 227.723 44.81 227.823 45.13C227.943 45.45 227.973 45.77 227.913 46.09C227.853 46.39 227.713 46.65 227.493 46.87C227.273 47.09 226.993 47.22 226.653 47.26C226.333 47.3 225.963 47.2 225.543 46.96C224.803 46.54 224.053 46.24 223.293 46.06C222.533 45.88 221.713 45.79 220.833 45.79C219.913 45.79 219.123 45.92 218.463 46.18C217.803 46.44 217.293 46.81 216.933 47.29C216.593 47.75 216.423 48.3 216.423 48.94C216.423 49.66 216.663 50.24 217.143 50.68C217.623 51.1 218.443 51.43 219.603 51.67L222.873 52.36C224.853 52.78 226.323 53.44 227.283 54.34C228.263 55.24 228.753 56.44 228.753 57.94C228.753 58.9 228.553 59.77 228.153 60.55C227.773 61.33 227.213 62 226.473 62.56C225.753 63.12 224.883 63.55 223.863 63.85C222.843 64.15 221.693 64.3 220.413 64.3ZM236.369 64.24C235.749 64.24 235.269 64.07 234.929 63.73C234.609 63.37 234.449 62.88 234.449 62.26V44.8C234.449 44.16 234.619 43.68 234.959 43.36C235.299 43.02 235.779 42.85 236.399 42.85H243.629C245.949 42.85 247.739 43.43 248.999 44.59C250.259 45.75 250.889 47.37 250.889 49.45C250.889 51.53 250.259 53.16 248.999 54.34C247.739 55.5 245.949 56.08 243.629 56.08H238.289V62.26C238.289 62.88 238.129 63.37 237.809 63.73C237.489 64.07 237.009 64.24 236.369 64.24ZM238.289 53.05H243.029C244.389 53.05 245.419 52.75 246.119 52.15C246.819 51.53 247.169 50.63 247.169 49.45C247.169 48.27 246.819 47.38 246.119 46.78C245.419 46.18 244.389 45.88 243.029 45.88H238.289V53.05ZM258.339 64.24C257.719 64.24 257.239 64.07 256.899 63.73C256.579 63.37 256.419 62.88 256.419 62.26V44.59C256.419 43.95 256.579 43.46 256.899 43.12C257.239 42.78 257.719 42.61 258.339 42.61C258.959 42.61 259.429 42.78 259.749 43.12C260.089 43.46 260.259 43.95 260.259 44.59V51.67H271.149V44.59C271.149 43.95 271.309 43.46 271.629 43.12C271.969 42.78 272.449 42.61 273.069 42.61C273.689 42.61 274.159 42.78 274.479 43.12C274.819 43.46 274.989 43.95 274.989 44.59V62.26C274.989 62.88 274.819 63.37 274.479 63.73C274.159 64.07 273.689 64.24 273.069 64.24C272.449 64.24 271.969 64.07 271.629 63.73C271.309 63.37 271.149 62.88 271.149 62.26V54.88H260.259V62.26C260.259 62.88 260.099 63.37 259.779 63.73C259.459 64.07 258.979 64.24 258.339 64.24ZM284.062 64C283.402 64 282.892 63.83 282.532 63.49C282.192 63.13 282.022 62.62 282.022 61.96V44.89C282.022 44.23 282.192 43.73 282.532 43.39C282.892 43.03 283.402 42.85 284.062 42.85H294.772C295.272 42.85 295.652 42.98 295.912 43.24C296.192 43.5 296.332 43.87 296.332 44.35C296.332 44.85 296.192 45.24 295.912 45.52C295.652 45.78 295.272 45.91 294.772 45.91H285.712V51.73H294.112C294.632 51.73 295.022 51.86 295.282 52.12C295.542 52.38 295.672 52.76 295.672 53.26C295.672 53.76 295.542 54.14 295.282 54.4C295.022 54.66 294.632 54.79 294.112 54.79H285.712V60.94H294.772C295.272 60.94 295.652 61.07 295.912 61.33C296.192 61.59 296.332 61.97 296.332 62.47C296.332 62.97 296.192 63.35 295.912 63.61C295.652 63.87 295.272 64 294.772 64H284.062ZM304.242 64.24C303.622 64.24 303.142 64.07 302.802 63.73C302.482 63.37 302.322 62.88 302.322 62.26V44.8C302.322 44.16 302.492 43.68 302.832 43.36C303.172 43.02 303.652 42.85 304.272 42.85H311.502C313.822 42.85 315.612 43.41 316.872 44.53C318.132 45.63 318.762 47.18 318.762 49.18C318.762 50.48 318.472 51.6 317.892 52.54C317.332 53.48 316.512 54.2 315.432 54.7C314.352 55.2 313.042 55.45 311.502 55.45L311.772 55H312.762C313.582 55 314.292 55.2 314.892 55.6C315.512 56 316.052 56.63 316.512 57.49L318.762 61.66C319.002 62.08 319.112 62.49 319.092 62.89C319.072 63.29 318.922 63.62 318.642 63.88C318.362 64.12 317.952 64.24 317.412 64.24C316.872 64.24 316.432 64.13 316.092 63.91C315.752 63.67 315.452 63.31 315.192 62.83L312.162 57.25C311.802 56.57 311.372 56.12 310.872 55.9C310.392 55.66 309.772 55.54 309.012 55.54H306.162V62.26C306.162 62.88 306.002 63.37 305.682 63.73C305.362 64.07 304.882 64.24 304.242 64.24ZM306.162 52.69H310.842C312.222 52.69 313.262 52.41 313.962 51.85C314.682 51.27 315.042 50.41 315.042 49.27C315.042 48.15 314.682 47.31 313.962 46.75C313.262 46.17 312.222 45.88 310.842 45.88H306.162V52.69ZM327.329 64C326.669 64 326.159 63.83 325.799 63.49C325.459 63.13 325.289 62.62 325.289 61.96V44.89C325.289 44.23 325.459 43.73 325.799 43.39C326.159 43.03 326.669 42.85 327.329 42.85H338.039C338.539 42.85 338.919 42.98 339.179 43.24C339.459 43.5 339.599 43.87 339.599 44.35C339.599 44.85 339.459 45.24 339.179 45.52C338.919 45.78 338.539 45.91 338.039 45.91H328.979V51.73H337.379C337.899 51.73 338.289 51.86 338.549 52.12C338.809 52.38 338.939 52.76 338.939 53.26C338.939 53.76 338.809 54.14 338.549 54.4C338.289 54.66 337.899 54.79 337.379 54.79H328.979V60.94H338.039C338.539 60.94 338.919 61.07 339.179 61.33C339.459 61.59 339.599 61.97 339.599 62.47C339.599 62.97 339.459 63.35 339.179 63.61C338.919 63.87 338.539 64 338.039 64H327.329Z" fill="#27BEFF"/>
<path d="M60.8656 55.9347C60.6913 55.7998 60.517 55.6649 60.3096 55.4434C60.1666 55.3018 60.0567 55.2468 59.9469 55.1918C59.8759 55.1498 59.8049 55.1078 59.7 54.9854C59.5531 54.8544 59.4399 54.8037 59.3268 54.7531C59.3268 54.7531 59.2688 54.7348 59.243 54.6636C59.1069 54.5421 58.9966 54.4918 58.8863 54.4416C58.5722 54.2441 58.258 54.0467 57.8978 53.7671C57.7381 53.6404 57.6244 53.5957 57.5107 53.5511C57.5107 53.5511 57.4515 53.5354 57.4222 53.4642C57.2766 53.3493 57.1603 53.3056 57.044 53.2619C56.9373 53.2049 56.8307 53.1479 56.6799 53.0126C56.5185 52.8943 56.4012 52.8542 56.284 52.8142C56.1768 52.7594 56.0696 52.7046 55.9192 52.5697C55.661 52.3953 55.4461 52.301 55.2312 52.2067C54.6779 51.9403 54.1247 51.674 53.5121 51.3278C53.1258 51.1302 52.7988 51.0124 52.4718 50.8946C52.3804 50.8614 52.2889 50.8282 52.1415 50.718C51.8609 50.5751 51.6364 50.5093 51.4118 50.4434C51.3199 50.4137 51.228 50.384 51.0797 50.2806C50.9 50.1862 50.7768 50.1655 50.6535 50.1448C50.5615 50.116 50.4695 50.0871 50.322 49.9837C48.6005 49.3802 46.9408 48.8297 45.2644 48.3351C44.7348 48.1788 44.1603 48.1719 43.6064 48.0966C43.5425 48.0903 43.4786 48.0839 43.3591 48.0148C43.152 47.9492 43.0005 47.9464 42.849 47.9436C42.7852 47.9372 42.7214 47.9308 42.594 47.8597C42.283 47.7941 42.0356 47.7931 41.7882 47.7921C41.6791 47.7841 41.57 47.7762 41.3864 47.7043C41.0166 47.6373 40.7212 47.6341 40.4258 47.6309C40.3617 47.6303 40.2976 47.6296 40.1662 47.5656C39.7527 47.498 39.4066 47.4937 39.0604 47.4894C38.5063 47.4796 37.9523 47.4697 37.3086 47.4027C36.9129 47.3748 36.6069 47.404 36.3008 47.4332C36.0473 47.4562 35.7938 47.4792 35.4364 47.4608C34.9992 47.4786 34.6658 47.5379 34.3325 47.5971C34.2694 47.6111 34.2063 47.6251 34.052 47.5965C33.2244 47.7099 32.4882 47.866 31.7519 48.022C31.6912 48.0449 31.6305 48.0678 31.4838 48.0562C30.3542 48.4266 29.3106 48.8315 28.267 49.2365C28.1208 49.3172 27.9746 49.3979 27.7318 49.4812C27.5459 49.5657 27.4566 49.6476 27.3673 49.7295C27.0025 49.9826 26.6378 50.2357 26.1839 50.5152C26.0146 50.6307 25.9344 50.7197 25.8542 50.8088C25.4169 51.2306 24.9797 51.6525 24.4658 52.123C24.3343 52.2785 24.2794 52.3853 24.2244 52.4921C24.0162 52.795 23.8079 53.0979 23.529 53.4578C23.4174 53.6278 23.3766 53.7408 23.3357 53.8538C23.3116 53.9037 23.2874 53.9537 23.1995 54.0609C23.0594 54.3337 22.9831 54.5491 22.9069 54.7646C22.8713 54.8549 22.8356 54.9452 22.7387 55.1061C22.6153 55.4416 22.5532 55.7064 22.4911 55.9713C22.4713 56.027 22.4514 56.0828 22.3825 56.214C22.3338 56.3832 22.3342 56.4768 22.3345 56.5705C22.3166 56.6264 22.2987 56.6823 22.2376 56.798C22.1996 56.9467 22.2047 57.0358 22.2098 57.1249C22.1921 57.2237 22.1744 57.3225 22.1094 57.4966C22.0602 57.7729 22.0581 57.9739 22.0561 58.1749C22.0545 59.179 22.0529 60.1831 22.0294 61.2956C22.045 61.6453 22.0825 61.8866 22.12 62.1279C22.146 62.3212 22.172 62.5144 22.179 62.7972C22.2006 63.0334 22.2411 63.1801 22.2817 63.3268C22.3013 63.426 22.321 63.5252 22.3231 63.706C22.3545 63.9327 22.4035 64.0778 22.4525 64.2229C22.4653 64.2786 22.4781 64.3343 22.4749 64.459C22.4935 64.6097 22.5282 64.6916 22.563 64.7734C22.5785 64.83 22.594 64.8865 22.6005 65.0252C22.637 65.2138 22.6825 65.3203 22.728 65.4269C22.7454 65.4816 22.7629 65.5363 22.7665 65.6578C22.8004 65.8248 22.8482 65.9251 22.8959 66.0254C23.0379 66.4591 23.18 66.8927 23.3296 67.4303C23.4545 67.7775 23.5718 68.0208 23.6891 68.2641C23.7647 68.4568 23.8403 68.6495 23.9243 68.934C23.9995 69.1235 24.0664 69.221 24.1334 69.3185C24.4564 69.9625 24.7795 70.6064 25.1189 71.3442C25.2146 71.5272 25.2939 71.6164 25.3731 71.7057C25.4344 71.81 25.4957 71.9144 25.5726 72.1047C25.6691 72.2785 25.7499 72.3663 25.8307 72.454C26.0323 72.7619 26.2338 73.0697 26.4588 73.466C26.5684 73.6376 26.6544 73.7208 26.7405 73.804C26.7405 73.804 26.7713 73.8544 26.7844 73.926C26.8852 74.079 26.9731 74.1604 27.0609 74.2418C27.1088 74.3084 27.1566 74.3749 27.2255 74.5221C27.336 74.6826 27.4255 74.7625 27.515 74.8424C27.6086 74.9591 27.7023 75.0759 27.8225 75.2752C27.9413 75.4348 28.0335 75.5119 28.1256 75.5889C28.2673 75.7559 28.4091 75.9228 28.5824 76.1765C28.9568 76.5883 29.2996 76.9132 29.6424 77.2381C29.8695 77.4686 30.0967 77.6991 30.3673 78.0096C30.6182 78.2467 30.8257 78.4037 31.0332 78.5606C31.2506 78.7516 31.4681 78.9426 31.7301 79.2102C31.8816 79.3441 31.9884 79.4015 32.0953 79.4589C32.212 79.5531 32.3288 79.6473 32.4896 79.8147C32.6425 79.9416 32.7513 79.9954 32.8601 80.0492C32.9263 80.0981 32.9925 80.147 33.1013 80.2653C33.2534 80.3865 33.3628 80.4382 33.4722 80.4899C33.4722 80.4899 33.5213 80.5232 33.556 80.5854C33.7016 80.6967 33.8126 80.7459 33.9236 80.795C33.9236 80.795 33.9732 80.8274 34.0084 80.8891C34.155 80.9992 34.2663 81.0477 34.3776 81.0961C34.3776 81.0961 34.4272 81.1284 34.4624 81.1902C34.6091 81.3 34.7207 81.348 34.8322 81.3961C34.8322 81.3961 34.8824 81.4278 34.9215 81.4906C35.172 81.6482 35.3835 81.743 35.5949 81.8379C35.7013 81.8972 35.8077 81.9565 35.9701 82.0836C37.4402 82.7702 38.8301 83.4543 40.2781 83.9824C41.0996 84.282 42.0163 84.3259 42.8901 84.4849C42.9922 84.4972 43.0942 84.5095 43.296 84.5641C44.4748 84.5831 45.5539 84.5598 46.633 84.5364C46.6917 84.5304 46.7504 84.5243 46.9086 84.5376C47.2368 84.4997 47.4653 84.4424 47.6938 84.385C47.7515 84.3757 47.8091 84.3663 47.9673 84.3735C48.4862 84.3024 48.9315 84.2773 49.3179 84.115C50.4131 83.6551 51.4842 83.139 52.5648 82.6451C52.5648 82.6451 52.6179 82.6168 52.6916 82.6095C52.85 82.5164 52.9347 82.4305 53.0193 82.3445C53.0853 82.2955 53.1513 82.2465 53.2997 82.1742C53.5105 82.0115 53.6389 81.8721 53.7672 81.7327C53.999 81.5073 54.2307 81.2819 54.5425 81.0147C54.68 80.8668 54.7376 80.7608 54.7952 80.6548C54.9057 80.5014 55.0161 80.348 55.1964 80.141C55.3099 79.9758 55.3535 79.8641 55.3972 79.7524C55.5205 79.5079 55.6438 79.2633 55.8319 78.9415C55.9581 78.5016 56.0195 78.1389 56.0809 77.7762C56.0982 77.6758 56.1155 77.5755 56.1743 77.3795C56.193 76.8638 56.1702 76.4438 56.1475 76.0237C56.1358 75.922 56.1241 75.8203 56.1303 75.6191C56.0993 75.3876 56.0505 75.2557 56.0016 75.1237C55.9897 75.0666 55.9777 75.0095 55.9778 74.8701C55.9382 74.6821 55.8866 74.5763 55.835 74.4705C55.7381 74.1867 55.6412 73.9028 55.5348 73.5142C55.2511 72.9212 54.977 72.4328 54.7028 71.9444C54.5456 71.6904 54.3884 71.4364 54.2105 71.0933C54.1042 70.9203 54.0185 70.8365 53.9328 70.7526C53.8862 70.6852 53.8395 70.6178 53.7725 70.4696C53.6628 70.3086 53.5734 70.2283 53.484 70.1481C53.4335 70.0836 53.383 70.0191 53.3085 69.8734C53.1455 69.6633 53.0065 69.5345 52.8674 69.4058C52.6285 69.1374 52.3895 68.8691 52.1139 68.5147C51.7765 68.1625 51.4757 67.8963 51.1749 67.6301C50.9576 67.439 50.7403 67.2479 50.4781 66.9789C50.2752 66.7954 50.1171 66.6898 49.959 66.5842C49.8418 66.4906 49.7246 66.397 49.563 66.2309C49.4114 66.1022 49.3041 66.0461 49.1969 65.99C49.131 65.9408 49.0651 65.8917 48.9553 65.7742C48.8019 65.6544 48.6924 65.6028 48.5829 65.5512C48.5829 65.5512 48.5343 65.5177 48.5002 65.4553C48.3557 65.3425 48.2453 65.292 48.135 65.2415C48.135 65.2415 48.086 65.2084 48.0497 65.1442C47.7516 64.9329 47.4897 64.7857 47.2279 64.6385C47.2279 64.6385 47.1773 64.6072 47.1399 64.5464C46.9897 64.4411 46.8768 64.3966 46.7638 64.3521C46.6562 64.2949 46.5485 64.2376 46.3841 64.1133C45.8409 63.7888 45.3643 63.5104 44.866 63.2777C43.0792 62.4432 41.2222 61.7898 39.2252 61.8647C38.395 61.8958 37.578 62.2723 36.755 62.4918C36.755 62.4918 36.7009 62.5177 36.6271 62.524C36.4669 62.6146 36.3806 62.6988 36.2942 62.7831C36.2942 62.7831 36.2435 62.8139 36.168 62.8289C35.9213 63.0399 35.7502 63.236 35.579 63.4321C35.5296 63.4975 35.4801 63.5629 35.3623 63.6736C35.2469 63.8295 35.1998 63.9401 35.1528 64.0507C35.0804 64.1967 35.008 64.3427 34.8746 64.554C34.798 64.7365 34.7825 64.8536 34.7669 64.9708C34.7472 65.0264 34.7275 65.0821 34.6582 65.2128C34.6123 65.3818 34.616 65.4759 34.6197 65.5699C34.6026 65.6706 34.5855 65.7714 34.5233 65.9625C34.504 66.3761 34.5299 66.6992 34.5558 67.0224C34.5783 67.1896 34.6009 67.3568 34.6055 67.5981C34.63 67.7733 34.6724 67.8744 34.7148 67.9756C34.7307 68.0306 34.7466 68.0856 34.749 68.2183C34.8405 68.5362 34.9455 68.7764 35.0505 69.0166C35.084 69.1083 35.1175 69.2 35.1587 69.3874C35.3394 69.7728 35.5124 70.0624 35.6854 70.3521C35.7452 70.4573 35.8051 70.5626 35.8817 70.7536C35.9813 70.9256 36.064 71.0117 36.1468 71.0978C36.1468 71.0978 36.1757 71.1497 36.1875 71.2218C36.2877 71.3748 36.3762 71.4557 36.4647 71.5366C36.5563 71.655 36.6479 71.7734 36.765 71.9747C36.8814 72.136 36.9723 72.2145 37.0631 72.293C37.5425 72.7731 38.0219 73.2533 38.5461 73.8135C38.7487 74.0001 38.9065 74.1067 39.0642 74.2133C39.128 74.2652 39.1918 74.3171 39.299 74.4384C39.4527 74.5584 39.5629 74.6091 39.673 74.6597C39.673 74.6597 39.7226 74.6925 39.7588 74.7539C39.9056 74.8638 40.0163 74.9122 40.127 74.9606C40.127 74.9606 40.1771 74.9927 40.2135 75.0541C40.3612 75.163 40.4725 75.2104 40.5837 75.2579C40.5837 75.2579 40.6343 75.2892 40.6712 75.3503C40.8208 75.4565 40.9334 75.5017 41.046 75.5469C41.1534 75.6047 41.2608 75.6625 41.4236 75.7846C41.5954 75.8808 41.7118 75.9127 41.8281 75.9446C42.0159 76.0367 42.2036 76.1287 42.4623 76.2891C43.4607 76.6168 44.3881 76.8763 45.3155 77.1358C45.3723 77.1494 45.429 77.1629 45.57 77.224C45.8419 77.2842 46.0295 77.2969 46.2171 77.3096C46.2758 77.317 46.3345 77.3245 46.4862 77.373C47.4559 77.3861 48.3326 77.3581 49.2093 77.3302C49.2675 77.3241 49.3257 77.318 49.4758 77.331C49.672 77.3655 49.7763 77.3808 50.1086 77.4294C49.4768 77.7058 49.0622 77.9405 48.6164 78.071C47.7125 78.3356 46.7917 78.5438 45.8778 78.7752C45.8197 78.7805 45.7616 78.7858 45.5925 78.7667C43.1323 78.8434 40.8983 78.3774 38.7668 77.4063C38.2027 77.1493 37.638 76.8934 37.0736 76.637C37.0736 76.637 37.0233 76.6052 36.9866 76.5442C36.8387 76.4355 36.7276 76.3878 36.6165 76.3401C36.6165 76.3401 36.5671 76.3073 36.5307 76.2462C36.3832 76.1371 36.2721 76.0891 36.161 76.0412C36.161 76.0412 36.1122 76.0078 36.0769 75.9459C35.9308 75.8351 35.82 75.7861 35.7093 75.7372C35.6417 75.6903 35.5741 75.6435 35.4643 75.5276C35.3153 75.402 35.2085 75.3454 35.1017 75.2888C34.9849 75.1947 34.8682 75.1006 34.7082 74.9315C34.5085 74.7494 34.3518 74.6422 34.1952 74.535C33.6096 73.9601 33.024 73.3853 32.4069 72.725C32.2833 72.5627 32.1911 72.4858 32.099 72.409C32.0043 72.2929 31.9097 72.1768 31.79 71.978C31.6762 71.815 31.5875 71.7346 31.4989 71.6542C31.45 71.5884 31.4011 71.5227 31.3311 71.3771C31.2249 71.2138 31.1398 71.1303 31.0546 71.0469C31.0546 71.0469 31.0251 70.9954 31.0145 70.9236C30.9202 70.7666 30.8365 70.6813 30.7529 70.596C30.7529 70.596 30.724 70.5442 30.7145 70.4729C30.6266 70.3125 30.5482 70.2236 30.4697 70.1346C30.3032 69.8366 30.1366 69.5387 29.9555 69.1462C29.824 68.859 29.7071 68.6664 29.5901 68.4738C29.5521 68.3839 29.5141 68.2939 29.4713 68.1153C29.4036 67.9268 29.3408 67.8269 29.2781 67.727C29.2444 67.6355 29.2108 67.5439 29.173 67.3534C29.073 67.0276 28.977 66.8008 28.881 66.574C28.8671 66.5169 28.8531 66.4599 28.844 66.3163C28.8065 66.1446 28.7643 66.0593 28.7221 65.974C28.7119 65.9166 28.7017 65.8592 28.7024 65.7099C28.6651 65.4868 28.6168 65.3555 28.5685 65.2241C28.5553 65.1226 28.5422 65.0212 28.5453 64.8147C28.5168 64.4812 28.4719 64.2526 28.4271 64.0241C28.4249 63.6687 28.4227 63.3133 28.4536 62.842C28.4914 62.4933 28.4961 62.2604 28.5007 62.0275C28.5239 61.8801 28.5471 61.7326 28.6152 61.4971C28.6647 61.3171 28.6694 61.2251 28.674 61.1332C28.688 61.076 28.7019 61.0188 28.7626 60.8818C28.8692 60.5635 28.929 60.3251 28.9889 60.0866C29.0216 59.9952 29.0543 59.9038 29.1516 59.745C29.3519 59.3682 29.4876 59.0587 29.6233 58.7491C29.6857 58.6457 29.7481 58.5423 29.8786 58.3882C29.9971 58.2291 30.0476 58.1206 30.0981 58.012C30.1472 57.9465 30.1964 57.8809 30.3143 57.7721C30.4394 57.6231 30.4957 57.5172 30.552 57.4113C30.9824 56.9826 31.4129 56.5539 31.9297 56.0957C32.0975 55.9788 32.179 55.8914 32.2605 55.804C32.2605 55.804 32.3123 55.7747 32.3851 55.7657C32.5441 55.6732 32.6303 55.5896 32.7165 55.506C32.7165 55.506 32.7684 55.4768 32.8492 55.465C34.9533 54.3162 37.1476 53.9698 39.4343 54.1267C42.0336 54.305 44.4847 55.0638 46.8568 56.0932C47.7059 56.4617 48.5409 56.8619 49.3824 57.2476C49.4887 57.3066 49.5951 57.3656 49.7565 57.4927C50.023 57.6551 50.2345 57.7493 50.4459 57.8435C50.4459 57.8435 50.4981 57.8731 50.5373 57.935C50.7833 58.0992 50.9902 58.2016 51.197 58.3039C51.197 58.3039 51.2478 58.3347 51.2846 58.3954C51.434 58.5015 51.5466 58.547 51.6592 58.5924C51.6592 58.5924 51.7098 58.6239 51.745 58.6852C51.8911 58.7959 52.0019 58.8452 52.1127 58.8946C52.1127 58.8946 52.1617 58.9277 52.1956 58.99C52.3395 59.1037 52.4494 59.1551 52.5593 59.2065C52.5593 59.2065 52.6077 59.2404 52.6427 59.3039C52.8436 59.459 53.0095 59.5506 53.1754 59.6422C53.1754 59.6422 53.2225 59.6775 53.2551 59.7421C53.45 59.9055 53.6123 60.0042 53.7746 60.1029C53.8392 60.1535 53.9039 60.2041 54.0092 60.3249C54.1569 60.452 54.2639 60.509 54.3709 60.5659C54.4879 60.6596 54.6049 60.7534 54.7654 60.9216C54.9672 61.1013 55.1254 61.2066 55.2836 61.3118C55.5004 61.5035 55.7171 61.6953 55.9781 61.9669C56.7259 62.7119 57.4293 63.377 58.1327 64.0422C58.3741 64.3084 58.6154 64.5747 58.8888 64.925C59.0134 65.0853 59.1059 65.1617 59.1984 65.238C59.2931 65.3541 59.3877 65.4702 59.509 65.6701C59.6699 65.8865 59.804 66.019 59.9382 66.1515C60.0902 66.3598 60.2422 66.5681 60.4185 66.863C60.5306 67.0311 60.6184 67.1126 60.7062 67.194C60.9106 67.5 61.115 67.806 61.3386 68.2013C61.4392 68.3782 61.5205 68.4658 61.6017 68.5533C61.663 68.6576 61.7244 68.762 61.8004 68.9518C61.8935 69.1272 61.9719 69.217 62.0503 69.3068C62.3763 69.9496 62.7022 70.5923 63.0393 71.3394C63.4526 72.62 63.8548 73.7962 64.257 74.9724C64.268 75.0291 64.279 75.0859 64.2755 75.2342C64.3066 75.4581 64.3522 75.5903 64.3978 75.7226C64.4126 75.8239 64.4274 75.9253 64.4241 76.1353C64.4547 76.5201 64.5034 76.7963 64.5521 77.0724C64.5552 77.6264 64.5583 78.1804 64.5218 78.8387C64.4818 79.1697 64.4815 79.3965 64.4812 79.6232C64.4569 79.7897 64.4326 79.9561 64.3606 80.2096C64.3078 80.4364 64.3027 80.576 64.2975 80.7157C64.2839 80.7726 64.2704 80.8295 64.2086 80.9606C64.159 81.1292 64.1578 81.2235 64.1565 81.3179C64.1398 81.3742 64.123 81.4306 64.0528 81.5626C63.9418 81.8794 63.8843 82.1204 63.8269 82.3614C63.7925 82.4523 63.7582 82.5433 63.6641 82.7009C63.5798 82.883 63.5553 82.9983 63.5307 83.1137C63.3053 83.5569 63.0798 84.0002 62.784 84.5031C62.6692 84.6738 62.6247 84.7849 62.5803 84.8959C62.5173 84.9991 62.4544 85.1023 62.3245 85.2594C62.2161 85.4256 62.1747 85.5379 62.1333 85.6502C61.9791 85.8574 61.8248 86.0646 61.5928 86.3189C61.3553 86.5692 61.1956 86.7723 61.0358 86.9754C60.9066 87.1048 60.7773 87.2342 60.5654 87.3956C60.3558 87.5682 60.2289 87.7087 60.1021 87.8492C59.9845 87.9423 59.8669 88.0354 59.6666 88.1546C59.5046 88.2708 59.4253 88.3611 59.3461 88.4513C59.2792 88.499 59.2122 88.5467 59.0641 88.6134C58.8992 88.7185 58.8156 88.8045 58.732 88.8905C58.732 88.8905 58.681 88.9211 58.609 88.9312C58.4484 89.021 58.3597 89.1007 58.271 89.1805C58.271 89.1805 58.2177 89.208 58.1374 89.218C57.6671 89.4463 57.2772 89.6647 56.8873 89.883C56.7977 89.9238 56.708 89.9647 56.517 90.017C55.1767 90.3798 53.9378 90.731 52.6989 91.0822C52.6415 91.0893 52.584 91.0964 52.4197 91.0836C51.4343 91.1219 50.5566 91.2023 49.6771 91.2322C48.7502 91.2636 47.8216 91.2467 46.8937 91.251C46.8361 91.2433 46.7784 91.2357 46.6335 91.1826C43.328 90.8303 40.222 90.0755 37.2297 88.8615C36.8186 88.6948 36.3963 88.5552 35.9793 88.403C35.3298 88.0784 34.6804 87.7539 33.9679 87.3588C33.6963 87.1898 33.4879 87.0914 33.2795 86.993C33.2795 86.993 33.2283 86.9627 33.1876 86.9015C32.9392 86.7403 32.7315 86.6402 32.5238 86.5402C32.5238 86.5402 32.473 86.5091 32.4348 86.4491C32.2837 86.3451 32.1708 86.3011 32.0579 86.2571C32.0579 86.2571 32.0072 86.2254 31.9689 86.1629C31.7258 85.9947 31.5211 85.889 31.3165 85.7833C31.3165 85.7833 31.2665 85.7505 31.2297 85.6895C31.0829 85.5796 30.9729 85.5307 30.8629 85.4818C30.7962 85.4337 30.7296 85.3856 30.6191 85.2689C30.4659 85.1485 30.3564 85.0966 30.2469 85.0448C30.1807 84.996 30.1146 84.9473 30.0074 84.8284C29.8598 84.701 29.7532 84.6438 29.6466 84.5865C29.5292 84.4931 29.4118 84.3997 29.2509 84.2334C29.1023 84.101 28.9973 84.0416 28.8923 83.9821C28.7256 83.8395 28.559 83.697 28.3474 83.4767C28.0446 83.1931 27.7867 82.9872 27.5288 82.7813C27.0459 82.3053 26.5631 81.8293 26.044 81.2675C25.8153 81.0071 25.6228 80.8326 25.4303 80.6581C25.1919 80.3894 24.9535 80.1207 24.6832 79.7679C24.5581 79.608 24.4649 79.5322 24.3716 79.4565C24.2326 79.2872 24.0937 79.118 23.9263 78.8656C23.8066 78.7045 23.7153 78.6266 23.6241 78.5487C23.5743 78.4837 23.5245 78.4187 23.4528 78.2739C23.3438 78.1124 23.2565 78.0307 23.1692 77.9491C23.1221 77.882 23.0749 77.815 23.0068 77.668C22.8988 77.5061 22.8118 77.4242 22.7247 77.3422C22.7247 77.3422 22.6938 77.2919 22.6807 77.2206C22.582 77.0661 22.4963 76.9829 22.4107 76.8997C22.0059 76.2937 21.6011 75.6876 21.1768 74.9913C21.0786 74.8121 21 74.7231 20.9213 74.6342C20.1917 73.2418 19.4621 71.8495 18.7235 70.3637C18.6488 70.1723 18.583 70.0744 18.5172 69.9765C18.4377 69.7852 18.3581 69.5938 18.2743 69.3107C18.2078 69.1199 18.1456 69.0207 18.0834 68.9216C17.9942 68.6848 17.905 68.448 17.8089 68.1032C17.6048 67.4714 17.4074 66.9477 17.2099 66.4239C17.1524 66.2212 17.0948 66.0184 17.0398 65.7195C16.9977 65.5403 16.9529 65.4572 16.9081 65.374C16.8948 65.3168 16.8815 65.2596 16.8706 65.1159C16.8318 64.9444 16.7907 64.8592 16.7495 64.7741C16.7381 64.7168 16.7267 64.6595 16.7237 64.5164C16.6914 64.345 16.6507 64.2595 16.61 64.174C16.6002 64.1155 16.5905 64.057 16.5901 63.9055C16.5498 63.683 16.5002 63.5536 16.4505 63.4241C16.4341 63.3227 16.4176 63.2213 16.4118 63.0276C16.3857 62.8483 16.3489 62.7612 16.3121 62.6741C16.2986 62.5713 16.285 62.4685 16.284 62.2624C16.2494 61.9809 16.2024 61.8025 16.1553 61.6242C16.1401 61.4754 16.1249 61.3265 16.1242 61.0648C16.0929 60.6761 16.0471 60.4002 16.0013 60.1243C15.9988 58.9193 15.9964 57.7144 16.0292 56.3927C16.0678 56.0435 16.0711 55.811 16.0745 55.5786C16.0966 55.4312 16.1188 55.2838 16.1792 55.0381C16.2194 54.8025 16.2213 54.6654 16.2232 54.5282C16.2488 54.3809 16.2744 54.2335 16.3425 53.9967C16.3885 53.8159 16.3921 53.7246 16.3957 53.6333C16.4097 53.5763 16.4237 53.5193 16.4793 53.3787C16.5344 53.1592 16.5479 53.0235 16.5613 52.8877C16.6178 52.6845 16.6743 52.4813 16.7815 52.1888C16.9948 51.5623 17.1574 51.025 17.32 50.4878C17.3519 50.396 17.3838 50.3042 17.4769 50.1465C17.5666 49.9663 17.5951 49.8521 17.6237 49.7379C17.6605 49.6476 17.6974 49.5574 17.7974 49.3966C18.0429 48.9175 18.2254 48.5089 18.4078 48.1003C18.5185 47.8987 18.6292 47.697 18.8103 47.4404C18.9281 47.2754 18.9755 47.1654 19.023 47.0555C19.023 47.0555 19.0542 47.0052 19.115 46.9681C19.2238 46.8212 19.2718 46.7114 19.3198 46.6016C19.3198 46.6016 19.3512 46.5512 19.4119 46.5149C19.5269 46.3722 19.5811 46.2657 19.6354 46.1593C20.3149 45.4272 20.9945 44.6951 21.768 43.9423C21.936 43.8254 22.0101 43.7294 22.0843 43.6334C22.2456 43.4859 22.4069 43.3383 22.6604 43.1794C22.8358 43.0805 22.9191 42.9929 23.0024 42.9053C23.3041 42.6942 23.6059 42.483 24.0043 42.266C24.1896 42.1757 24.2782 42.0912 24.3668 42.0068C24.3668 42.0068 24.4104 41.9645 24.4884 41.9672C24.6528 41.8867 24.7393 41.8035 24.8259 41.7203C25.4695 41.3933 26.1131 41.0664 26.8661 40.7434C27.9297 40.3899 28.8839 40.0325 29.8381 39.6751C29.8982 39.6506 29.9584 39.6261 30.1001 39.6332C30.4705 39.5627 30.7593 39.4606 31.0481 39.3585C31.1095 39.3386 31.1709 39.3187 31.316 39.335C31.7379 39.272 32.0762 39.1728 32.4144 39.0735C32.5211 39.0476 32.6279 39.0217 32.8149 39.032C33.0381 39.0207 33.181 38.973 33.324 38.9254C33.4308 38.8997 33.5377 38.8739 33.7301 38.8852C34.0053 38.8727 34.1949 38.8232 34.3846 38.7737C34.5396 38.7478 34.6946 38.722 34.9464 38.7363C35.3283 38.7217 35.6134 38.6669 35.8984 38.6121C36.1519 38.5877 36.4053 38.5632 36.7695 38.5846C37.402 38.6361 37.9241 38.6557 38.4454 38.6444C39.4056 38.6235 40.3654 38.5844 41.3253 38.5529C41.6789 38.5633 42.0324 38.5737 42.4728 38.6467C42.8555 38.7068 43.1514 38.7044 43.4473 38.7019C43.6041 38.7093 43.761 38.7167 43.9928 38.7874C44.3152 38.8546 44.5626 38.8586 44.8099 38.8625C44.874 38.8647 44.938 38.8669 45.0649 38.931C45.3755 38.9996 45.6231 39.0063 45.8708 39.013C45.9348 39.0164 45.9987 39.0199 46.123 39.0853C46.3826 39.1506 46.5818 39.1541 46.781 39.1575C46.845 39.1608 46.909 39.164 47.0288 39.227C47.2366 39.29 47.3884 39.2933 47.5402 39.2967C47.6042 39.302 47.6681 39.3073 47.7869 39.3738C47.9937 39.4402 48.1456 39.4455 48.2975 39.4507C48.3614 39.4562 48.4254 39.4617 48.5445 39.5288C48.7513 39.5962 48.9028 39.602 49.0544 39.6078C49.1183 39.6157 49.1822 39.6235 49.2975 39.6913C49.4533 39.7502 49.5576 39.7492 49.662 39.7482C49.7259 39.7552 49.7898 39.7623 49.9187 39.8385C50.6849 40.0538 51.3861 40.2 52.0873 40.3462C52.1512 40.3569 52.2152 40.3676 52.3422 40.4497C53.2821 40.8153 54.1567 41.1168 55.0368 41.4017C55.7426 41.6301 56.4551 41.8384 57.1646 42.0555C57.2563 42.0856 57.3481 42.1156 57.4961 42.2193C57.6754 42.3142 57.7983 42.3354 57.9213 42.3565C58.0133 42.3865 58.1053 42.4165 58.2531 42.5219C58.5343 42.6658 58.7596 42.7343 58.9848 42.8029C59.076 42.836 59.1672 42.8691 59.3122 42.9772C60.0877 43.3819 60.8095 43.7116 61.5312 44.0412C61.9374 44.2463 62.3437 44.4514 62.8006 44.7375C62.9677 44.8588 63.0841 44.8991 63.2005 44.9393C63.4055 45.0468 63.6106 45.1543 63.8621 45.3413C64.0217 45.4643 64.1349 45.5078 64.248 45.5512C64.248 45.5512 64.3081 45.5669 64.3382 45.6377C64.4832 45.753 64.5982 45.7976 64.7132 45.8421C65.7311 46.5391 66.749 47.2361 67.8084 48.0173C67.9584 48.155 68.0669 48.2084 68.1754 48.2618C68.2975 48.3498 68.4197 48.4379 68.5758 48.6089C68.7175 48.7484 68.8253 48.8051 68.9331 48.8618C69.6632 49.492 70.3932 50.1223 71.1538 50.8421C71.2883 50.9949 71.3921 51.0581 71.496 51.1213C71.7802 51.3939 72.0644 51.6665 72.3742 52.0309C72.5479 52.2417 72.6959 52.3608 72.844 52.4799C73.5954 53.3416 74.3468 54.2033 75.1149 55.1585C75.2229 55.3298 75.3143 55.4077 75.4057 55.4855C76.3251 56.8843 77.2446 58.2832 78.1675 59.7821C78.2975 60.0701 78.424 60.258 78.5506 60.446C78.6299 60.5886 78.7092 60.7312 78.785 60.9671C78.8526 61.1563 78.9237 61.2521 78.9947 61.3479C79.4946 62.6282 79.9946 63.9085 80.4792 65.2861C80.518 65.4893 80.5721 65.5952 80.6262 65.7011C80.6821 65.8813 80.738 66.0614 80.7763 66.3474C80.805 66.5439 80.8512 66.6345 80.8975 66.7251C80.9222 66.8167 80.9469 66.9082 80.9487 67.0964C80.9698 67.2875 81.0139 67.3819 81.058 67.4764C81.0789 67.5683 81.0998 67.6602 81.0943 67.853C81.1173 68.0949 81.1667 68.2361 81.216 68.3772C81.2407 68.514 81.2653 68.6507 81.2592 68.8916C81.2712 69.1391 81.3139 69.2824 81.3567 69.4256C81.3927 69.787 81.4288 70.1483 81.4193 70.6167C81.3992 71.4383 81.4246 72.1527 81.45 72.8671C81.4283 73.18 81.4066 73.4929 81.3327 73.8878C81.2873 74.1024 81.294 74.2349 81.3007 74.3675C81.2796 74.5361 81.2584 74.7047 81.1791 74.9583C81.1248 75.1462 81.1287 75.2491 81.1326 75.3521C81.1186 75.4453 81.1045 75.5385 81.0306 75.7107C80.9693 75.8921 80.9678 75.9946 80.9664 76.097C80.9605 76.1475 80.9547 76.1979 80.8893 76.3176C80.8236 76.4898 80.8174 76.5928 80.8113 76.6957C80.7667 76.878 80.7221 77.0602 80.6077 77.3185C80.4717 77.6585 80.4055 77.9225 80.3394 78.1864C79.1237 81.526 76.9825 84.1808 74.0822 86.3568C73.9077 86.4573 73.8277 86.5449 73.7477 86.6326C73.0436 87.0973 72.3395 87.562 71.5338 88.0303C71.2437 88.1646 71.055 88.2952 70.8664 88.4259C70.3231 88.702 69.7798 88.9781 69.1347 89.2507C68.8328 89.3604 68.6328 89.4737 68.4327 89.5869C68.3445 89.6287 68.2562 89.6706 68.0741 89.7025C67.8788 89.7592 67.7775 89.8259 67.6762 89.8925C67.5863 89.9318 67.4964 89.9711 67.299 90.0005C66.1394 90.3479 65.0872 90.7052 64.035 91.0625C63.9744 91.0861 63.9137 91.1097 63.7862 91.1028C63.6227 91.1217 63.5262 91.1711 63.4296 91.2205C63.3689 91.2431 63.3081 91.2657 63.1806 91.2576C63.0173 91.2766 62.9207 91.3263 62.8241 91.3761C62.7628 91.3968 62.7014 91.4176 62.5666 91.4033C62.351 91.4224 62.209 91.4767 62.0669 91.531C62.0051 91.5495 61.9433 91.5681 61.808 91.5516C61.5925 91.57 61.4505 91.6234 61.3085 91.6769C61.2465 91.6952 61.1846 91.7136 61.0491 91.6963C60.8336 91.7129 60.6915 91.7651 60.5495 91.8173C60.4876 91.8363 60.4256 91.8554 60.2836 91.8392C60.0163 91.8623 59.8289 91.9205 59.6416 91.9787C59.5791 91.9949 59.5165 92.011 59.3789 91.9899C59.1815 91.8675 59.0592 91.7822 58.9368 91.697C59.023 91.655 59.1092 91.613 59.295 91.5804C59.6975 91.4339 60.0005 91.2781 60.3034 91.1222C60.9516 90.7868 61.5998 90.4514 62.3507 90.114C62.6419 89.9787 62.8303 89.8454 63.0188 89.7121C63.1226 89.6477 63.2263 89.5832 63.4233 89.518C63.6031 89.4315 63.6896 89.3459 63.7762 89.2602C63.7762 89.2602 63.8188 89.2152 63.8976 89.2165C64.0611 89.1317 64.1458 89.0455 64.2305 88.9593C64.2305 88.9593 64.2732 88.9147 64.352 88.9158C64.5155 88.8306 64.6002 88.7443 64.6848 88.6579C64.6848 88.6579 64.7255 88.6127 64.8048 88.6127C64.9671 88.5218 65.05 88.4309 65.1329 88.34C65.1955 88.2868 65.2581 88.2336 65.4091 88.1735C65.5788 88.0763 65.6601 87.986 65.7414 87.8956C65.8577 87.7982 65.9739 87.7007 66.1811 87.5872C66.3467 87.4756 66.4214 87.3801 66.496 87.2846C67.0757 86.7023 67.6554 86.1199 68.3252 85.5048C68.4763 85.3661 68.5373 85.2603 68.5983 85.1544C68.6877 85.0337 68.777 84.9129 68.9504 84.7565C69.0866 84.61 69.1389 84.499 69.1912 84.3881C69.3922 84.0802 69.5933 83.7724 69.8771 83.4179C70.0037 83.2569 70.0474 83.1425 70.0912 83.0281C70.3092 82.5818 70.5271 82.1355 70.8208 81.6261C70.9164 81.4411 70.9364 81.3193 70.9563 81.1974C71.0497 80.916 71.143 80.6345 71.3058 80.2835C71.4307 79.9193 71.4861 79.6245 71.5416 79.3298C71.5481 79.2667 71.5546 79.2036 71.6171 79.0859C71.6726 78.9298 71.6721 78.8283 71.6716 78.7269C71.6901 78.5729 71.7085 78.419 71.783 78.1914C71.8349 77.9709 71.8307 77.8242 71.8265 77.6775C71.8444 77.3284 71.8623 76.9793 71.9336 76.5424C71.9615 76.2015 71.936 75.9485 71.9105 75.6955C71.8817 75.2976 71.8529 74.8996 71.8639 74.4064C71.8547 74.1226 71.8058 73.934 71.7568 73.7453C71.7272 73.5923 71.6975 73.4392 71.7039 73.204C71.6894 72.9802 71.6387 72.8384 71.5881 72.6967C71.5689 72.6357 71.5497 72.5746 71.562 72.4488C71.5471 72.2878 71.5008 72.1917 71.4545 72.0956C71.4337 72.0345 71.413 71.9734 71.4251 71.8302C71.3516 71.4641 71.2453 71.18 71.139 70.8959C70.9399 70.3145 70.7408 69.7332 70.5498 69.0516C70.4902 68.8507 70.4224 68.7501 70.3547 68.6495C70.3132 68.5627 70.2718 68.476 70.2398 68.2926C70.1319 67.9972 70.0146 67.7985 69.8973 67.5998C69.5671 66.9576 69.237 66.3153 68.9034 65.5756C68.8178 65.3878 68.7356 65.2976 68.6534 65.2074C68.5873 65.1055 68.5212 65.0037 68.4533 64.8105C68.3687 64.6316 68.2859 64.5438 68.2031 64.4561C68.135 64.3556 68.0669 64.2551 67.9959 64.063C67.9081 63.884 67.8233 63.7966 67.7385 63.7092C67.5286 63.4055 67.3187 63.1018 67.0993 62.7033C67.0021 62.5257 66.9144 62.4428 66.8268 62.3598C65.9686 61.2988 65.1104 60.2377 64.2325 59.0808C64.0138 58.8134 63.8148 58.6418 63.6158 58.4703C63.2808 58.1463 62.9457 57.8224 62.5803 57.4089C62.4456 57.2561 62.3412 57.1928 62.2368 57.1296C61.9098 56.8478 61.5827 56.566 61.2213 56.1965C61.0799 56.0507 60.9727 55.9927 60.8656 55.9347Z" fill="url(#paint0_radial_1_2)"/>
<path d="M51.2946 32.2404C51.2325 32.2284 51.1704 32.2164 51.0519 32.15C50.8926 32.0969 50.7898 32.0983 50.687 32.0996C50.6248 32.0883 50.5625 32.077 50.4404 32.0063C50.231 31.9405 50.0815 31.9342 49.932 31.9278C49.8696 31.9177 49.8072 31.9075 49.6873 31.8446C49.5271 31.796 49.4245 31.8002 49.3219 31.8044C49.2149 31.7856 49.108 31.7668 48.9306 31.6916C48.7117 31.6344 48.5633 31.6336 48.415 31.6327C48.3525 31.6251 48.2901 31.6175 48.1662 31.5534C47.9546 31.4986 47.8045 31.5003 47.6544 31.502C47.4851 31.4771 47.3157 31.4522 47.0721 31.3745C46.8633 31.3294 46.7286 31.3371 46.594 31.3448C46.4865 31.3326 46.3791 31.3204 46.1952 31.2492C45.8731 31.1908 45.6273 31.1916 45.3814 31.1923C45.2269 31.177 45.0724 31.1616 44.831 31.089C44.4012 31.0318 44.0582 31.0317 43.7151 31.0317C43.2016 31.0132 42.6881 30.9947 42.0656 30.923C41.1756 30.8968 40.3946 30.9238 39.6136 30.9508C39.1501 30.9815 38.6865 31.0122 38.1203 30.9988C37.7412 31.0037 37.4647 31.0526 37.1882 31.1016C37.0189 31.1285 36.8496 31.1553 36.5962 31.1435C36.2729 31.1572 36.0339 31.2096 35.7949 31.2619C35.6881 31.2848 35.5813 31.3076 35.3906 31.2948C35.1157 31.3118 34.9246 31.3646 34.7336 31.4173C34.6733 31.4387 34.613 31.46 34.4797 31.4512C34.2632 31.4728 34.1197 31.5245 33.9762 31.5762C33.9161 31.5979 33.8561 31.6196 33.7316 31.6117C33.568 31.6235 33.4688 31.665 33.3697 31.7065C33.3092 31.7293 33.2487 31.7521 33.1014 31.7461C32.5266 31.8637 32.0385 32.0102 31.5505 32.1567C31.4904 32.1817 31.4304 32.2067 31.3042 32.207C31.1399 32.2288 31.0419 32.2753 30.9439 32.3219C30.3634 32.5266 29.7828 32.7312 29.0909 32.9257C28.6289 33.0823 28.2782 33.2492 27.9275 33.4161C27.8444 33.4599 27.7612 33.5037 27.5742 33.5367C26.9678 33.8028 26.4653 34.0797 25.9627 34.3566C25.7636 34.4747 25.5645 34.5928 25.2671 34.7091C25.0794 34.7902 24.99 34.8732 24.9006 34.9562C24.7897 35.0305 24.6789 35.1048 24.5123 35.1274C24.4544 34.9458 24.4522 34.8159 24.45 34.686C32.3629 28.5711 41.3744 25.6954 51.3327 26.0592C65.1105 26.5624 76.4429 32.2173 85.3396 42.7045C85.4615 42.8483 85.4761 43.0823 85.5408 43.2742C85.6662 43.1752 85.7917 43.0762 85.9171 42.9772C85.7425 42.5133 85.6124 42.0265 85.3864 41.589C82.4151 35.8383 78.1358 31.2064 72.9718 27.3602C67.3865 23.2001 61.188 20.3633 54.3101 19.1012C47.52 17.8552 40.8843 18.386 34.4561 20.9969C33.6289 21.3329 32.7908 21.6424 31.9186 21.8331C39.8428 16.5119 48.6001 14.0818 58.0806 15.3152C73.4155 17.3103 84.0777 25.6456 90.1242 39.9168C90.1773 40.114 90.238 40.2148 90.2986 40.3157C90.6028 41.2032 90.907 42.0907 91.1986 43.0755C91.2404 43.2772 91.2949 43.3818 91.3494 43.4863C91.5165 44.116 91.6835 44.7456 91.83 45.4856C91.8492 45.7385 91.8889 45.881 91.9285 46.0235C91.9527 46.1641 91.9768 46.3048 91.9784 46.5465C91.9969 46.7414 92.0379 46.8353 92.0789 46.9292C92.1062 47.0691 92.1335 47.2091 92.1381 47.4498C92.1557 47.6457 92.1959 47.7407 92.2361 47.8357C92.2612 47.9757 92.2862 48.1156 92.2844 48.3607C92.3013 48.6081 92.3451 48.7504 92.3889 48.8927C92.4239 49.1086 92.4589 49.3245 92.4615 49.616C92.4642 49.7774 92.4991 49.863 92.5341 49.9487C92.5704 50.263 92.6066 50.5773 92.6053 50.9836C92.6088 51.2537 92.6499 51.4319 92.691 51.6101C92.7267 52.1732 92.7623 52.7363 92.7529 53.4098C92.7344 54.1897 92.761 54.8593 92.7875 55.5289C92.7603 56.0407 92.7331 56.5525 92.6585 57.1552C92.6206 57.3784 92.6303 57.5108 92.64 57.6431C92.6157 57.9082 92.5913 58.1733 92.5187 58.5208C92.4753 58.736 92.48 58.8687 92.4848 59.0014C92.4588 59.2186 92.4328 59.4359 92.3535 59.7432C92.3054 59.9343 92.3105 60.0355 92.3157 60.1366C92.2968 60.2781 92.2778 60.4196 92.2058 60.6501C92.1565 60.8403 92.1603 60.9414 92.1641 61.0426C92.1486 61.1372 92.133 61.2319 92.0636 61.4097C92.0106 61.5945 92.0115 61.6961 92.0125 61.7976C91.9968 61.8924 91.9811 61.9871 91.9104 62.1636C91.8525 62.3463 91.8495 62.4472 91.8465 62.5481C91.8383 62.5996 91.8301 62.6512 91.7667 62.7757C91.708 62.9505 91.7045 63.0524 91.7009 63.1543C91.6424 63.3974 91.5839 63.6404 91.465 63.9687C91.398 64.1549 91.3914 64.2559 91.3848 64.3569C91.3389 64.5407 91.293 64.7245 91.1834 64.9859C91.1053 65.1795 91.0909 65.2953 91.0765 65.4112C90.8886 65.9985 90.7007 66.5859 90.4425 67.2482C90.3495 67.4379 90.3267 67.5527 90.3039 67.6676C90.1758 68.0099 90.0477 68.3523 89.8462 68.762C89.7466 68.9446 89.7203 69.0598 89.6941 69.175C88.8767 70.7325 88.0593 72.29 87.1889 73.8823C87.0722 73.8295 87.0086 73.7417 86.945 73.6539C86.9537 73.5917 86.9625 73.5295 87.0277 73.4154C87.0884 73.259 87.0926 73.1545 87.0967 73.0501C87.1047 72.9878 87.1126 72.9255 87.1763 72.8107C87.2337 72.6538 87.2353 72.5494 87.2369 72.445C87.2502 72.3379 87.2636 72.2309 87.3355 72.058C87.3979 71.8417 87.4016 71.6913 87.4054 71.5409C87.4143 71.4336 87.4233 71.3263 87.4904 71.1476C87.5508 70.8788 87.553 70.6814 87.5551 70.4839C87.5689 70.2814 87.5827 70.079 87.6558 69.7872C87.7107 69.3055 87.7063 68.9131 87.7019 68.5208C87.6987 68.3088 87.6955 68.0969 87.7364 67.7802C87.7285 67.2917 87.6764 66.9079 87.6244 66.5242C87.5984 66.2732 87.5723 66.0222 87.5849 65.6787C87.5742 65.3955 87.5249 65.2047 87.4756 65.014C87.4484 64.8609 87.4213 64.7078 87.428 64.4712C87.4106 64.2449 87.3593 64.1021 87.308 63.9593C87.285 63.8533 87.2619 63.7474 87.2689 63.5685C87.2527 63.3984 87.2065 63.3012 87.1604 63.204C87.1432 63.143 87.126 63.082 87.1415 62.9466C87.1133 62.732 87.0525 62.5918 86.9917 62.4515C86.9306 62.2432 86.8695 62.0349 86.8351 61.7527C86.809 61.5832 86.7563 61.4876 86.7036 61.392C86.5059 60.8072 86.3083 60.2225 86.1183 59.5385C86.0608 59.3362 85.9955 59.2331 85.9302 59.1299C85.8917 59.0408 85.8531 58.9516 85.8205 58.7696C85.7552 58.5773 85.684 58.4777 85.6128 58.3781C84.5082 55.8991 83.1395 53.5756 81.4678 51.3259C81.3593 51.1521 81.2677 51.0727 81.1761 50.9932C78.8396 48.0263 76.14 45.4214 73.1608 42.9703C73.0136 42.8279 72.9054 42.7714 72.7972 42.7148C71.2194 41.6125 69.6415 40.5101 68.0145 39.3261C67.8504 39.2003 67.7354 39.1562 67.6204 39.1122C67.5136 39.0535 67.4067 38.9948 67.2559 38.8589C67.0983 38.7381 66.9848 38.6944 66.8712 38.6507C66.5134 38.4442 66.1555 38.2376 65.7447 37.9526C65.5746 37.8361 65.4575 37.7981 65.3404 37.7601C64.9382 37.547 64.5359 37.3338 64.0797 37.0407C63.0948 36.529 62.1639 36.0972 61.2331 35.6654C60.9399 35.5378 60.6467 35.4102 60.2931 35.2063C60.1132 35.1047 59.9938 35.0794 59.8744 35.0541C59.7799 35.0243 59.6854 34.9945 59.5316 34.8921C59.3539 34.7967 59.2355 34.774 59.1171 34.7512C59.0226 34.7211 58.928 34.691 58.7729 34.5865C58.3403 34.3927 57.9682 34.2734 57.5962 34.1541C57.5021 34.1279 57.408 34.1017 57.2543 34.0027C56.6123 33.7198 56.0383 33.481 55.4452 33.3071C54.6753 33.0815 53.8902 32.9076 53.1116 32.7114C53.0492 32.6994 52.9868 32.6875 52.8715 32.6169C52.7144 32.5567 52.6102 32.5551 52.5061 32.5536C52.4439 32.5407 52.3817 32.5278 52.2649 32.4576C52.1071 32.3989 52.0038 32.3975 51.9005 32.3961C51.8384 32.3826 51.7763 32.3691 51.6587 32.2996C51.5004 32.2426 51.3975 32.2415 51.2946 32.2404Z" fill="url(#paint1_radial_1_2)"/>
<defs>
<radialGradient id="paint0_radial_1_2" cx="0" cy="0" r="1" gradientUnits="userSpaceOnUse" gradientTransform="translate(54.3558 55.9059) rotate(106.152) scale(38.3 45.6788)">
<stop stop-color="#27BEFF"/>
<stop offset="1" stop-color="white"/>
</radialGradient>
<radialGradient id="paint1_radial_1_2" cx="0" cy="0" r="1" gradientUnits="userSpaceOnUse" gradientTransform="translate(64.498 34.1176) rotate(105.348) scale(42.0284 47.883)">
<stop stop-color="#27BEFF"/>
<stop offset="1" stop-color="white"/>
</radialGradient>
</defs>
</svg>
